<?xml version="1.0" encoding="utf-8" standalone="no"?>
<!DOCTYPE svg PUBLIC "-//W3C//DTD SVG 1.1//EN"
  "http://www.w3.org/Graphics/SVG/1.1/DTD/svg11.dtd">
<svg xmlns:xlink="http://www.w3.org/1999/xlink" width="409.610625pt" height="322.066062pt" viewBox="0 0 409.610625 322.066062" xmlns="http://www.w3.org/2000/svg" version="1.1">
 <metadata>
  <rdf:RDF xmlns:dc="http://purl.org/dc/elements/1.1/" xmlns:cc="http://creativecommons.org/ns#" xmlns:rdf="http://www.w3.org/1999/02/22-rdf-syntax-ns#">
   <cc:Work>
    <dc:type rdf:resource="http://purl.org/dc/dcmitype/StillImage"/>
    <dc:date>2024-04-09T10:56:17.731385</dc:date>
    <dc:format>image/svg+xml</dc:format>
    <dc:creator>
     <cc:Agent>
      <dc:title>Matplotlib v3.7.5, https://matplotlib.org/</dc:title>
     </cc:Agent>
    </dc:creator>
   </cc:Work>
  </rdf:RDF>
 </metadata>
 <defs>
  <style type="text/css">*{stroke-linejoin: round; stroke-linecap: butt}</style>
 </defs>
 <g id="figure_1">
  <g id="patch_1">
   <path d="M 0 322.066062 
L 409.610625 322.066062 
L 409.610625 0 
L 0 0 
z
" style="fill: #ffffff"/>
  </g>
  <g id="axes_1">
   <g id="patch_2">
    <path d="M 40.603125 273.312 
L 397.723125 273.312 
L 397.723125 7.2 
L 40.603125 7.2 
z
" style="fill: #ffffff"/>
   </g>
   <g id="matplotlib.axis_1">
    <g id="xtick_1">
     <g id="line2d_1">
      <defs>
       <path id="m2007357a43" d="M 0 0 
L 0 3.5 
" style="stroke: #000000; stroke-width: 0.8"/>
      </defs>
      <g>
       <use xlink:href="#m2007357a43" x="60.763125" y="273.312" style="stroke: #000000; stroke-width: 0.8"/>
      </g>
     </g>
     <g id="text_1">
      <!-- 1024 -->
      <g transform="translate(48.038125 287.910437) scale(0.1 -0.1)">
       <defs>
        <path id="DejaVuSans-31" d="M 794 531 
L 1825 531 
L 1825 4091 
L 703 3866 
L 703 4441 
L 1819 4666 
L 2450 4666 
L 2450 531 
L 3481 531 
L 3481 0 
L 794 0 
L 794 531 
z
" transform="scale(0.015625)"/>
        <path id="DejaVuSans-30" d="M 2034 4250 
Q 1547 4250 1301 3770 
Q 1056 3291 1056 2328 
Q 1056 1369 1301 889 
Q 1547 409 2034 409 
Q 2525 409 2770 889 
Q 3016 1369 3016 2328 
Q 3016 3291 2770 3770 
Q 2525 4250 2034 4250 
z
M 2034 4750 
Q 2819 4750 3233 4129 
Q 3647 3509 3647 2328 
Q 3647 1150 3233 529 
Q 2819 -91 2034 -91 
Q 1250 -91 836 529 
Q 422 1150 422 2328 
Q 422 3509 836 4129 
Q 1250 4750 2034 4750 
z
" transform="scale(0.015625)"/>
        <path id="DejaVuSans-32" d="M 1228 531 
L 3431 531 
L 3431 0 
L 469 0 
L 469 531 
Q 828 903 1448 1529 
Q 2069 2156 2228 2338 
Q 2531 2678 2651 2914 
Q 2772 3150 2772 3378 
Q 2772 3750 2511 3984 
Q 2250 4219 1831 4219 
Q 1534 4219 1204 4116 
Q 875 4013 500 3803 
L 500 4441 
Q 881 4594 1212 4672 
Q 1544 4750 1819 4750 
Q 2544 4750 2975 4387 
Q 3406 4025 3406 3419 
Q 3406 3131 3298 2873 
Q 3191 2616 2906 2266 
Q 2828 2175 2409 1742 
Q 1991 1309 1228 531 
z
" transform="scale(0.015625)"/>
        <path id="DejaVuSans-34" d="M 2419 4116 
L 825 1625 
L 2419 1625 
L 2419 4116 
z
M 2253 4666 
L 3047 4666 
L 3047 1625 
L 3713 1625 
L 3713 1100 
L 3047 1100 
L 3047 0 
L 2419 0 
L 2419 1100 
L 313 1100 
L 313 1709 
L 2253 4666 
z
" transform="scale(0.015625)"/>
       </defs>
       <use xlink:href="#DejaVuSans-31"/>
       <use xlink:href="#DejaVuSans-30" x="63.623047"/>
       <use xlink:href="#DejaVuSans-32" x="127.246094"/>
       <use xlink:href="#DejaVuSans-34" x="190.869141"/>
      </g>
      <!-- (8) -->
      <g transform="translate(53.680312 299.10825) scale(0.1 -0.1)">
       <defs>
        <path id="DejaVuSans-28" d="M 1984 4856 
Q 1566 4138 1362 3434 
Q 1159 2731 1159 2009 
Q 1159 1288 1364 580 
Q 1569 -128 1984 -844 
L 1484 -844 
Q 1016 -109 783 600 
Q 550 1309 550 2009 
Q 550 2706 781 3412 
Q 1013 4119 1484 4856 
L 1984 4856 
z
" transform="scale(0.015625)"/>
        <path id="DejaVuSans-38" d="M 2034 2216 
Q 1584 2216 1326 1975 
Q 1069 1734 1069 1313 
Q 1069 891 1326 650 
Q 1584 409 2034 409 
Q 2484 409 2743 651 
Q 3003 894 3003 1313 
Q 3003 1734 2745 1975 
Q 2488 2216 2034 2216 
z
M 1403 2484 
Q 997 2584 770 2862 
Q 544 3141 544 3541 
Q 544 4100 942 4425 
Q 1341 4750 2034 4750 
Q 2731 4750 3128 4425 
Q 3525 4100 3525 3541 
Q 3525 3141 3298 2862 
Q 3072 2584 2669 2484 
Q 3125 2378 3379 2068 
Q 3634 1759 3634 1313 
Q 3634 634 3220 271 
Q 2806 -91 2034 -91 
Q 1263 -91 848 271 
Q 434 634 434 1313 
Q 434 1759 690 2068 
Q 947 2378 1403 2484 
z
M 1172 3481 
Q 1172 3119 1398 2916 
Q 1625 2713 2034 2713 
Q 2441 2713 2670 2916 
Q 2900 3119 2900 3481 
Q 2900 3844 2670 4047 
Q 2441 4250 2034 4250 
Q 1625 4250 1398 4047 
Q 1172 3844 1172 3481 
z
" transform="scale(0.015625)"/>
        <path id="DejaVuSans-29" d="M 513 4856 
L 1013 4856 
Q 1481 4119 1714 3412 
Q 1947 2706 1947 2009 
Q 1947 1309 1714 600 
Q 1481 -109 1013 -844 
L 513 -844 
Q 928 -128 1133 580 
Q 1338 1288 1338 2009 
Q 1338 2731 1133 3434 
Q 928 4138 513 4856 
z
" transform="scale(0.015625)"/>
       </defs>
       <use xlink:href="#DejaVuSans-28"/>
       <use xlink:href="#DejaVuSans-38" x="39.013672"/>
       <use xlink:href="#DejaVuSans-29" x="102.636719"/>
      </g>
     </g>
    </g>
    <g id="xtick_2">
     <g id="line2d_2">
      <g>
       <use xlink:href="#m2007357a43" x="106.843125" y="273.312" style="stroke: #000000; stroke-width: 0.8"/>
      </g>
     </g>
     <g id="text_2">
      <!-- 2048 -->
      <g transform="translate(94.118125 287.910437) scale(0.1 -0.1)">
       <use xlink:href="#DejaVuSans-32"/>
       <use xlink:href="#DejaVuSans-30" x="63.623047"/>
       <use xlink:href="#DejaVuSans-34" x="127.246094"/>
       <use xlink:href="#DejaVuSans-38" x="190.869141"/>
      </g>
      <!-- (16) -->
      <g transform="translate(96.579062 299.10825) scale(0.1 -0.1)">
       <defs>
        <path id="DejaVuSans-36" d="M 2113 2584 
Q 1688 2584 1439 2293 
Q 1191 2003 1191 1497 
Q 1191 994 1439 701 
Q 1688 409 2113 409 
Q 2538 409 2786 701 
Q 3034 994 3034 1497 
Q 3034 2003 2786 2293 
Q 2538 2584 2113 2584 
z
M 3366 4563 
L 3366 3988 
Q 3128 4100 2886 4159 
Q 2644 4219 2406 4219 
Q 1781 4219 1451 3797 
Q 1122 3375 1075 2522 
Q 1259 2794 1537 2939 
Q 1816 3084 2150 3084 
Q 2853 3084 3261 2657 
Q 3669 2231 3669 1497 
Q 3669 778 3244 343 
Q 2819 -91 2113 -91 
Q 1303 -91 875 529 
Q 447 1150 447 2328 
Q 447 3434 972 4092 
Q 1497 4750 2381 4750 
Q 2619 4750 2861 4703 
Q 3103 4656 3366 4563 
z
" transform="scale(0.015625)"/>
       </defs>
       <use xlink:href="#DejaVuSans-28"/>
       <use xlink:href="#DejaVuSans-31" x="39.013672"/>
       <use xlink:href="#DejaVuSans-36" x="102.636719"/>
       <use xlink:href="#DejaVuSans-29" x="166.259766"/>
      </g>
     </g>
    </g>
    <g id="xtick_3">
     <g id="line2d_3">
      <g>
       <use xlink:href="#m2007357a43" x="152.923125" y="273.312" style="stroke: #000000; stroke-width: 0.8"/>
      </g>
     </g>
     <g id="text_3">
      <!-- 4096 -->
      <g transform="translate(140.198125 287.910437) scale(0.1 -0.1)">
       <defs>
        <path id="DejaVuSans-39" d="M 703 97 
L 703 672 
Q 941 559 1184 500 
Q 1428 441 1663 441 
Q 2288 441 2617 861 
Q 2947 1281 2994 2138 
Q 2813 1869 2534 1725 
Q 2256 1581 1919 1581 
Q 1219 1581 811 2004 
Q 403 2428 403 3163 
Q 403 3881 828 4315 
Q 1253 4750 1959 4750 
Q 2769 4750 3195 4129 
Q 3622 3509 3622 2328 
Q 3622 1225 3098 567 
Q 2575 -91 1691 -91 
Q 1453 -91 1209 -44 
Q 966 3 703 97 
z
M 1959 2075 
Q 2384 2075 2632 2365 
Q 2881 2656 2881 3163 
Q 2881 3666 2632 3958 
Q 2384 4250 1959 4250 
Q 1534 4250 1286 3958 
Q 1038 3666 1038 3163 
Q 1038 2656 1286 2365 
Q 1534 2075 1959 2075 
z
" transform="scale(0.015625)"/>
       </defs>
       <use xlink:href="#DejaVuSans-34"/>
       <use xlink:href="#DejaVuSans-30" x="63.623047"/>
       <use xlink:href="#DejaVuSans-39" x="127.246094"/>
       <use xlink:href="#DejaVuSans-36" x="190.869141"/>
      </g>
      <!-- (32) -->
      <g transform="translate(142.659063 299.10825) scale(0.1 -0.1)">
       <defs>
        <path id="DejaVuSans-33" d="M 2597 2516 
Q 3050 2419 3304 2112 
Q 3559 1806 3559 1356 
Q 3559 666 3084 287 
Q 2609 -91 1734 -91 
Q 1441 -91 1130 -33 
Q 819 25 488 141 
L 488 750 
Q 750 597 1062 519 
Q 1375 441 1716 441 
Q 2309 441 2620 675 
Q 2931 909 2931 1356 
Q 2931 1769 2642 2001 
Q 2353 2234 1838 2234 
L 1294 2234 
L 1294 2753 
L 1863 2753 
Q 2328 2753 2575 2939 
Q 2822 3125 2822 3475 
Q 2822 3834 2567 4026 
Q 2313 4219 1838 4219 
Q 1578 4219 1281 4162 
Q 984 4106 628 3988 
L 628 4550 
Q 988 4650 1302 4700 
Q 1616 4750 1894 4750 
Q 2613 4750 3031 4423 
Q 3450 4097 3450 3541 
Q 3450 3153 3228 2886 
Q 3006 2619 2597 2516 
z
" transform="scale(0.015625)"/>
       </defs>
       <use xlink:href="#DejaVuSans-28"/>
       <use xlink:href="#DejaVuSans-33" x="39.013672"/>
       <use xlink:href="#DejaVuSans-32" x="102.636719"/>
       <use xlink:href="#DejaVuSans-29" x="166.259766"/>
      </g>
     </g>
    </g>
    <g id="xtick_4">
     <g id="line2d_4">
      <g>
       <use xlink:href="#m2007357a43" x="199.003125" y="273.312" style="stroke: #000000; stroke-width: 0.8"/>
      </g>
     </g>
     <g id="text_4">
      <!-- 8192 -->
      <g transform="translate(186.278125 287.910437) scale(0.1 -0.1)">
       <use xlink:href="#DejaVuSans-38"/>
       <use xlink:href="#DejaVuSans-31" x="63.623047"/>
       <use xlink:href="#DejaVuSans-39" x="127.246094"/>
       <use xlink:href="#DejaVuSans-32" x="190.869141"/>
      </g>
      <!-- (64) -->
      <g transform="translate(188.739062 299.10825) scale(0.1 -0.1)">
       <use xlink:href="#DejaVuSans-28"/>
       <use xlink:href="#DejaVuSans-36" x="39.013672"/>
       <use xlink:href="#DejaVuSans-34" x="102.636719"/>
       <use xlink:href="#DejaVuSans-29" x="166.259766"/>
      </g>
     </g>
    </g>
    <g id="xtick_5">
     <g id="line2d_5">
      <g>
       <use xlink:href="#m2007357a43" x="245.083125" y="273.312" style="stroke: #000000; stroke-width: 0.8"/>
      </g>
     </g>
     <g id="text_5">
      <!-- 16384 -->
      <g transform="translate(229.176875 287.910437) scale(0.1 -0.1)">
       <use xlink:href="#DejaVuSans-31"/>
       <use xlink:href="#DejaVuSans-36" x="63.623047"/>
       <use xlink:href="#DejaVuSans-33" x="127.246094"/>
       <use xlink:href="#DejaVuSans-38" x="190.869141"/>
       <use xlink:href="#DejaVuSans-34" x="254.492188"/>
      </g>
      <!-- (128) -->
      <g transform="translate(231.637812 299.10825) scale(0.1 -0.1)">
       <use xlink:href="#DejaVuSans-28"/>
       <use xlink:href="#DejaVuSans-31" x="39.013672"/>
       <use xlink:href="#DejaVuSans-32" x="102.636719"/>
       <use xlink:href="#DejaVuSans-38" x="166.259766"/>
       <use xlink:href="#DejaVuSans-29" x="229.882812"/>
      </g>
     </g>
    </g>
    <g id="xtick_6">
     <g id="line2d_6">
      <g>
       <use xlink:href="#m2007357a43" x="291.163125" y="273.312" style="stroke: #000000; stroke-width: 0.8"/>
      </g>
     </g>
     <g id="text_6">
      <!-- 32768 -->
      <g transform="translate(275.256875 287.910437) scale(0.1 -0.1)">
       <defs>
        <path id="DejaVuSans-37" d="M 525 4666 
L 3525 4666 
L 3525 4397 
L 1831 0 
L 1172 0 
L 2766 4134 
L 525 4134 
L 525 4666 
z
" transform="scale(0.015625)"/>
       </defs>
       <use xlink:href="#DejaVuSans-33"/>
       <use xlink:href="#DejaVuSans-32" x="63.623047"/>
       <use xlink:href="#DejaVuSans-37" x="127.246094"/>
       <use xlink:href="#DejaVuSans-36" x="190.869141"/>
       <use xlink:href="#DejaVuSans-38" x="254.492188"/>
      </g>
      <!-- (256) -->
      <g transform="translate(277.717813 299.10825) scale(0.1 -0.1)">
       <defs>
        <path id="DejaVuSans-35" d="M 691 4666 
L 3169 4666 
L 3169 4134 
L 1269 4134 
L 1269 2991 
Q 1406 3038 1543 3061 
Q 1681 3084 1819 3084 
Q 2600 3084 3056 2656 
Q 3513 2228 3513 1497 
Q 3513 744 3044 326 
Q 2575 -91 1722 -91 
Q 1428 -91 1123 -41 
Q 819 9 494 109 
L 494 744 
Q 775 591 1075 516 
Q 1375 441 1709 441 
Q 2250 441 2565 725 
Q 2881 1009 2881 1497 
Q 2881 1984 2565 2268 
Q 2250 2553 1709 2553 
Q 1456 2553 1204 2497 
Q 953 2441 691 2322 
L 691 4666 
z
" transform="scale(0.015625)"/>
       </defs>
       <use xlink:href="#DejaVuSans-28"/>
       <use xlink:href="#DejaVuSans-32" x="39.013672"/>
       <use xlink:href="#DejaVuSans-35" x="102.636719"/>
       <use xlink:href="#DejaVuSans-36" x="166.259766"/>
       <use xlink:href="#DejaVuSans-29" x="229.882812"/>
      </g>
     </g>
    </g>
    <g id="xtick_7">
     <g id="line2d_7">
      <g>
       <use xlink:href="#m2007357a43" x="337.243125" y="273.312" style="stroke: #000000; stroke-width: 0.8"/>
      </g>
     </g>
     <g id="text_7">
      <!-- 65536 -->
      <g transform="translate(321.336875 287.910437) scale(0.1 -0.1)">
       <use xlink:href="#DejaVuSans-36"/>
       <use xlink:href="#DejaVuSans-35" x="63.623047"/>
       <use xlink:href="#DejaVuSans-35" x="127.246094"/>
       <use xlink:href="#DejaVuSans-33" x="190.869141"/>
       <use xlink:href="#DejaVuSans-36" x="254.492188"/>
      </g>
      <!-- (512) -->
      <g transform="translate(323.797812 299.10825) scale(0.1 -0.1)">
       <use xlink:href="#DejaVuSans-28"/>
       <use xlink:href="#DejaVuSans-35" x="39.013672"/>
       <use xlink:href="#DejaVuSans-31" x="102.636719"/>
       <use xlink:href="#DejaVuSans-32" x="166.259766"/>
       <use xlink:href="#DejaVuSans-29" x="229.882812"/>
      </g>
     </g>
    </g>
    <g id="xtick_8">
     <g id="line2d_8">
      <g>
       <use xlink:href="#m2007357a43" x="383.323125" y="273.312" style="stroke: #000000; stroke-width: 0.8"/>
      </g>
     </g>
     <g id="text_8">
      <!-- 131072 -->
      <g transform="translate(364.235625 287.910437) scale(0.1 -0.1)">
       <use xlink:href="#DejaVuSans-31"/>
       <use xlink:href="#DejaVuSans-33" x="63.623047"/>
       <use xlink:href="#DejaVuSans-31" x="127.246094"/>
       <use xlink:href="#DejaVuSans-30" x="190.869141"/>
       <use xlink:href="#DejaVuSans-37" x="254.492188"/>
       <use xlink:href="#DejaVuSans-32" x="318.115234"/>
      </g>
      <!-- (1024) -->
      <g transform="translate(366.696563 299.10825) scale(0.1 -0.1)">
       <use xlink:href="#DejaVuSans-28"/>
       <use xlink:href="#DejaVuSans-31" x="39.013672"/>
       <use xlink:href="#DejaVuSans-30" x="102.636719"/>
       <use xlink:href="#DejaVuSans-32" x="166.259766"/>
       <use xlink:href="#DejaVuSans-34" x="229.882812"/>
       <use xlink:href="#DejaVuSans-29" x="293.505859"/>
      </g>
     </g>
    </g>
    <g id="text_9">
     <!-- Number of Cores (Nodes) -->
     <g transform="translate(155.758438 312.786375) scale(0.1 -0.1)">
      <defs>
       <path id="DejaVuSans-4e" d="M 628 4666 
L 1478 4666 
L 3547 763 
L 3547 4666 
L 4159 4666 
L 4159 0 
L 3309 0 
L 1241 3903 
L 1241 0 
L 628 0 
L 628 4666 
z
" transform="scale(0.015625)"/>
       <path id="DejaVuSans-75" d="M 544 1381 
L 544 3500 
L 1119 3500 
L 1119 1403 
Q 1119 906 1312 657 
Q 1506 409 1894 409 
Q 2359 409 2629 706 
Q 2900 1003 2900 1516 
L 2900 3500 
L 3475 3500 
L 3475 0 
L 2900 0 
L 2900 538 
Q 2691 219 2414 64 
Q 2138 -91 1772 -91 
Q 1169 -91 856 284 
Q 544 659 544 1381 
z
M 1991 3584 
L 1991 3584 
z
" transform="scale(0.015625)"/>
       <path id="DejaVuSans-6d" d="M 3328 2828 
Q 3544 3216 3844 3400 
Q 4144 3584 4550 3584 
Q 5097 3584 5394 3201 
Q 5691 2819 5691 2113 
L 5691 0 
L 5113 0 
L 5113 2094 
Q 5113 2597 4934 2840 
Q 4756 3084 4391 3084 
Q 3944 3084 3684 2787 
Q 3425 2491 3425 1978 
L 3425 0 
L 2847 0 
L 2847 2094 
Q 2847 2600 2669 2842 
Q 2491 3084 2119 3084 
Q 1678 3084 1418 2786 
Q 1159 2488 1159 1978 
L 1159 0 
L 581 0 
L 581 3500 
L 1159 3500 
L 1159 2956 
Q 1356 3278 1631 3431 
Q 1906 3584 2284 3584 
Q 2666 3584 2933 3390 
Q 3200 3197 3328 2828 
z
" transform="scale(0.015625)"/>
       <path id="DejaVuSans-62" d="M 3116 1747 
Q 3116 2381 2855 2742 
Q 2594 3103 2138 3103 
Q 1681 3103 1420 2742 
Q 1159 2381 1159 1747 
Q 1159 1113 1420 752 
Q 1681 391 2138 391 
Q 2594 391 2855 752 
Q 3116 1113 3116 1747 
z
M 1159 2969 
Q 1341 3281 1617 3432 
Q 1894 3584 2278 3584 
Q 2916 3584 3314 3078 
Q 3713 2572 3713 1747 
Q 3713 922 3314 415 
Q 2916 -91 2278 -91 
Q 1894 -91 1617 61 
Q 1341 213 1159 525 
L 1159 0 
L 581 0 
L 581 4863 
L 1159 4863 
L 1159 2969 
z
" transform="scale(0.015625)"/>
       <path id="DejaVuSans-65" d="M 3597 1894 
L 3597 1613 
L 953 1613 
Q 991 1019 1311 708 
Q 1631 397 2203 397 
Q 2534 397 2845 478 
Q 3156 559 3463 722 
L 3463 178 
Q 3153 47 2828 -22 
Q 2503 -91 2169 -91 
Q 1331 -91 842 396 
Q 353 884 353 1716 
Q 353 2575 817 3079 
Q 1281 3584 2069 3584 
Q 2775 3584 3186 3129 
Q 3597 2675 3597 1894 
z
M 3022 2063 
Q 3016 2534 2758 2815 
Q 2500 3097 2075 3097 
Q 1594 3097 1305 2825 
Q 1016 2553 972 2059 
L 3022 2063 
z
" transform="scale(0.015625)"/>
       <path id="DejaVuSans-72" d="M 2631 2963 
Q 2534 3019 2420 3045 
Q 2306 3072 2169 3072 
Q 1681 3072 1420 2755 
Q 1159 2438 1159 1844 
L 1159 0 
L 581 0 
L 581 3500 
L 1159 3500 
L 1159 2956 
Q 1341 3275 1631 3429 
Q 1922 3584 2338 3584 
Q 2397 3584 2469 3576 
Q 2541 3569 2628 3553 
L 2631 2963 
z
" transform="scale(0.015625)"/>
       <path id="DejaVuSans-20" transform="scale(0.015625)"/>
       <path id="DejaVuSans-6f" d="M 1959 3097 
Q 1497 3097 1228 2736 
Q 959 2375 959 1747 
Q 959 1119 1226 758 
Q 1494 397 1959 397 
Q 2419 397 2687 759 
Q 2956 1122 2956 1747 
Q 2956 2369 2687 2733 
Q 2419 3097 1959 3097 
z
M 1959 3584 
Q 2709 3584 3137 3096 
Q 3566 2609 3566 1747 
Q 3566 888 3137 398 
Q 2709 -91 1959 -91 
Q 1206 -91 779 398 
Q 353 888 353 1747 
Q 353 2609 779 3096 
Q 1206 3584 1959 3584 
z
" transform="scale(0.015625)"/>
       <path id="DejaVuSans-66" d="M 2375 4863 
L 2375 4384 
L 1825 4384 
Q 1516 4384 1395 4259 
Q 1275 4134 1275 3809 
L 1275 3500 
L 2222 3500 
L 2222 3053 
L 1275 3053 
L 1275 0 
L 697 0 
L 697 3053 
L 147 3053 
L 147 3500 
L 697 3500 
L 697 3744 
Q 697 4328 969 4595 
Q 1241 4863 1831 4863 
L 2375 4863 
z
" transform="scale(0.015625)"/>
       <path id="DejaVuSans-43" d="M 4122 4306 
L 4122 3641 
Q 3803 3938 3442 4084 
Q 3081 4231 2675 4231 
Q 1875 4231 1450 3742 
Q 1025 3253 1025 2328 
Q 1025 1406 1450 917 
Q 1875 428 2675 428 
Q 3081 428 3442 575 
Q 3803 722 4122 1019 
L 4122 359 
Q 3791 134 3420 21 
Q 3050 -91 2638 -91 
Q 1578 -91 968 557 
Q 359 1206 359 2328 
Q 359 3453 968 4101 
Q 1578 4750 2638 4750 
Q 3056 4750 3426 4639 
Q 3797 4528 4122 4306 
z
" transform="scale(0.015625)"/>
       <path id="DejaVuSans-73" d="M 2834 3397 
L 2834 2853 
Q 2591 2978 2328 3040 
Q 2066 3103 1784 3103 
Q 1356 3103 1142 2972 
Q 928 2841 928 2578 
Q 928 2378 1081 2264 
Q 1234 2150 1697 2047 
L 1894 2003 
Q 2506 1872 2764 1633 
Q 3022 1394 3022 966 
Q 3022 478 2636 193 
Q 2250 -91 1575 -91 
Q 1294 -91 989 -36 
Q 684 19 347 128 
L 347 722 
Q 666 556 975 473 
Q 1284 391 1588 391 
Q 1994 391 2212 530 
Q 2431 669 2431 922 
Q 2431 1156 2273 1281 
Q 2116 1406 1581 1522 
L 1381 1569 
Q 847 1681 609 1914 
Q 372 2147 372 2553 
Q 372 3047 722 3315 
Q 1072 3584 1716 3584 
Q 2034 3584 2315 3537 
Q 2597 3491 2834 3397 
z
" transform="scale(0.015625)"/>
       <path id="DejaVuSans-64" d="M 2906 2969 
L 2906 4863 
L 3481 4863 
L 3481 0 
L 2906 0 
L 2906 525 
Q 2725 213 2448 61 
Q 2172 -91 1784 -91 
Q 1150 -91 751 415 
Q 353 922 353 1747 
Q 353 2572 751 3078 
Q 1150 3584 1784 3584 
Q 2172 3584 2448 3432 
Q 2725 3281 2906 2969 
z
M 947 1747 
Q 947 1113 1208 752 
Q 1469 391 1925 391 
Q 2381 391 2643 752 
Q 2906 1113 2906 1747 
Q 2906 2381 2643 2742 
Q 2381 3103 1925 3103 
Q 1469 3103 1208 2742 
Q 947 2381 947 1747 
z
" transform="scale(0.015625)"/>
      </defs>
      <use xlink:href="#DejaVuSans-4e"/>
      <use xlink:href="#DejaVuSans-75" x="74.804688"/>
      <use xlink:href="#DejaVuSans-6d" x="138.183594"/>
      <use xlink:href="#DejaVuSans-62" x="235.595703"/>
      <use xlink:href="#DejaVuSans-65" x="299.072266"/>
      <use xlink:href="#DejaVuSans-72" x="360.595703"/>
      <use xlink:href="#DejaVuSans-20" x="401.708984"/>
      <use xlink:href="#DejaVuSans-6f" x="433.496094"/>
      <use xlink:href="#DejaVuSans-66" x="494.677734"/>
      <use xlink:href="#DejaVuSans-20" x="529.882812"/>
      <use xlink:href="#DejaVuSans-43" x="561.669922"/>
      <use xlink:href="#DejaVuSans-6f" x="631.494141"/>
      <use xlink:href="#DejaVuSans-72" x="692.675781"/>
      <use xlink:href="#DejaVuSans-65" x="731.539062"/>
      <use xlink:href="#DejaVuSans-73" x="793.0625"/>
      <use xlink:href="#DejaVuSans-20" x="845.162109"/>
      <use xlink:href="#DejaVuSans-28" x="876.949219"/>
      <use xlink:href="#DejaVuSans-4e" x="915.962891"/>
      <use xlink:href="#DejaVuSans-6f" x="990.767578"/>
      <use xlink:href="#DejaVuSans-64" x="1051.949219"/>
      <use xlink:href="#DejaVuSans-65" x="1115.425781"/>
      <use xlink:href="#DejaVuSans-73" x="1176.949219"/>
      <use xlink:href="#DejaVuSans-29" x="1229.048828"/>
     </g>
    </g>
   </g>
   <g id="matplotlib.axis_2">
    <g id="ytick_1">
     <g id="line2d_9">
      <defs>
       <path id="m3537472120" d="M 0 0 
L -3.5 0 
" style="stroke: #000000; stroke-width: 0.8"/>
      </defs>
      <g>
       <use xlink:href="#m3537472120" x="40.603125" y="221.350342" style="stroke: #000000; stroke-width: 0.8"/>
      </g>
     </g>
     <g id="text_10">
      <!-- 20 -->
      <g transform="translate(20.878125 225.14956) scale(0.1 -0.1)">
       <use xlink:href="#DejaVuSans-32"/>
       <use xlink:href="#DejaVuSans-30" x="63.623047"/>
      </g>
     </g>
    </g>
    <g id="ytick_2">
     <g id="line2d_10">
      <g>
       <use xlink:href="#m3537472120" x="40.603125" y="163.841773" style="stroke: #000000; stroke-width: 0.8"/>
      </g>
     </g>
     <g id="text_11">
      <!-- 40 -->
      <g transform="translate(20.878125 167.640992) scale(0.1 -0.1)">
       <use xlink:href="#DejaVuSans-34"/>
       <use xlink:href="#DejaVuSans-30" x="63.623047"/>
      </g>
     </g>
    </g>
    <g id="ytick_3">
     <g id="line2d_11">
      <g>
       <use xlink:href="#m3537472120" x="40.603125" y="106.333205" style="stroke: #000000; stroke-width: 0.8"/>
      </g>
     </g>
     <g id="text_12">
      <!-- 60 -->
      <g transform="translate(20.878125 110.132424) scale(0.1 -0.1)">
       <use xlink:href="#DejaVuSans-36"/>
       <use xlink:href="#DejaVuSans-30" x="63.623047"/>
      </g>
     </g>
    </g>
    <g id="ytick_4">
     <g id="line2d_12">
      <g>
       <use xlink:href="#m3537472120" x="40.603125" y="48.824637" style="stroke: #000000; stroke-width: 0.8"/>
      </g>
     </g>
     <g id="text_13">
      <!-- 80 -->
      <g transform="translate(20.878125 52.623856) scale(0.1 -0.1)">
       <use xlink:href="#DejaVuSans-38"/>
       <use xlink:href="#DejaVuSans-30" x="63.623047"/>
      </g>
     </g>
    </g>
    <g id="text_14">
     <!-- Write Time per Time Step in s -->
     <g transform="translate(14.798437 214.311469) rotate(-90) scale(0.1 -0.1)">
      <defs>
       <path id="DejaVuSans-57" d="M 213 4666 
L 850 4666 
L 1831 722 
L 2809 4666 
L 3519 4666 
L 4500 722 
L 5478 4666 
L 6119 4666 
L 4947 0 
L 4153 0 
L 3169 4050 
L 2175 0 
L 1381 0 
L 213 4666 
z
" transform="scale(0.015625)"/>
       <path id="DejaVuSans-69" d="M 603 3500 
L 1178 3500 
L 1178 0 
L 603 0 
L 603 3500 
z
M 603 4863 
L 1178 4863 
L 1178 4134 
L 603 4134 
L 603 4863 
z
" transform="scale(0.015625)"/>
       <path id="DejaVuSans-74" d="M 1172 4494 
L 1172 3500 
L 2356 3500 
L 2356 3053 
L 1172 3053 
L 1172 1153 
Q 1172 725 1289 603 
Q 1406 481 1766 481 
L 2356 481 
L 2356 0 
L 1766 0 
Q 1100 0 847 248 
Q 594 497 594 1153 
L 594 3053 
L 172 3053 
L 172 3500 
L 594 3500 
L 594 4494 
L 1172 4494 
z
" transform="scale(0.015625)"/>
       <path id="DejaVuSans-54" d="M -19 4666 
L 3928 4666 
L 3928 4134 
L 2272 4134 
L 2272 0 
L 1638 0 
L 1638 4134 
L -19 4134 
L -19 4666 
z
" transform="scale(0.015625)"/>
       <path id="DejaVuSans-70" d="M 1159 525 
L 1159 -1331 
L 581 -1331 
L 581 3500 
L 1159 3500 
L 1159 2969 
Q 1341 3281 1617 3432 
Q 1894 3584 2278 3584 
Q 2916 3584 3314 3078 
Q 3713 2572 3713 1747 
Q 3713 922 3314 415 
Q 2916 -91 2278 -91 
Q 1894 -91 1617 61 
Q 1341 213 1159 525 
z
M 3116 1747 
Q 3116 2381 2855 2742 
Q 2594 3103 2138 3103 
Q 1681 3103 1420 2742 
Q 1159 2381 1159 1747 
Q 1159 1113 1420 752 
Q 1681 391 2138 391 
Q 2594 391 2855 752 
Q 3116 1113 3116 1747 
z
" transform="scale(0.015625)"/>
       <path id="DejaVuSans-53" d="M 3425 4513 
L 3425 3897 
Q 3066 4069 2747 4153 
Q 2428 4238 2131 4238 
Q 1616 4238 1336 4038 
Q 1056 3838 1056 3469 
Q 1056 3159 1242 3001 
Q 1428 2844 1947 2747 
L 2328 2669 
Q 3034 2534 3370 2195 
Q 3706 1856 3706 1288 
Q 3706 609 3251 259 
Q 2797 -91 1919 -91 
Q 1588 -91 1214 -16 
Q 841 59 441 206 
L 441 856 
Q 825 641 1194 531 
Q 1563 422 1919 422 
Q 2459 422 2753 634 
Q 3047 847 3047 1241 
Q 3047 1584 2836 1778 
Q 2625 1972 2144 2069 
L 1759 2144 
Q 1053 2284 737 2584 
Q 422 2884 422 3419 
Q 422 4038 858 4394 
Q 1294 4750 2059 4750 
Q 2388 4750 2728 4690 
Q 3069 4631 3425 4513 
z
" transform="scale(0.015625)"/>
       <path id="DejaVuSans-6e" d="M 3513 2113 
L 3513 0 
L 2938 0 
L 2938 2094 
Q 2938 2591 2744 2837 
Q 2550 3084 2163 3084 
Q 1697 3084 1428 2787 
Q 1159 2491 1159 1978 
L 1159 0 
L 581 0 
L 581 3500 
L 1159 3500 
L 1159 2956 
Q 1366 3272 1645 3428 
Q 1925 3584 2291 3584 
Q 2894 3584 3203 3211 
Q 3513 2838 3513 2113 
z
" transform="scale(0.015625)"/>
      </defs>
      <use xlink:href="#DejaVuSans-57"/>
      <use xlink:href="#DejaVuSans-72" x="94.376953"/>
      <use xlink:href="#DejaVuSans-69" x="135.490234"/>
      <use xlink:href="#DejaVuSans-74" x="163.273438"/>
      <use xlink:href="#DejaVuSans-65" x="202.482422"/>
      <use xlink:href="#DejaVuSans-20" x="264.005859"/>
      <use xlink:href="#DejaVuSans-54" x="295.792969"/>
      <use xlink:href="#DejaVuSans-69" x="353.751953"/>
      <use xlink:href="#DejaVuSans-6d" x="381.535156"/>
      <use xlink:href="#DejaVuSans-65" x="478.947266"/>
      <use xlink:href="#DejaVuSans-20" x="540.470703"/>
      <use xlink:href="#DejaVuSans-70" x="572.257812"/>
      <use xlink:href="#DejaVuSans-65" x="635.734375"/>
      <use xlink:href="#DejaVuSans-72" x="697.257812"/>
      <use xlink:href="#DejaVuSans-20" x="738.371094"/>
      <use xlink:href="#DejaVuSans-54" x="770.158203"/>
      <use xlink:href="#DejaVuSans-69" x="828.117188"/>
      <use xlink:href="#DejaVuSans-6d" x="855.900391"/>
      <use xlink:href="#DejaVuSans-65" x="953.3125"/>
      <use xlink:href="#DejaVuSans-20" x="1014.835938"/>
      <use xlink:href="#DejaVuSans-53" x="1046.623047"/>
      <use xlink:href="#DejaVuSans-74" x="1110.099609"/>
      <use xlink:href="#DejaVuSans-65" x="1149.308594"/>
      <use xlink:href="#DejaVuSans-70" x="1210.832031"/>
      <use xlink:href="#DejaVuSans-20" x="1274.308594"/>
      <use xlink:href="#DejaVuSans-69" x="1306.095703"/>
      <use xlink:href="#DejaVuSans-6e" x="1333.878906"/>
      <use xlink:href="#DejaVuSans-20" x="1397.257812"/>
      <use xlink:href="#DejaVuSans-73" x="1429.044922"/>
     </g>
    </g>
   </g>
   <g id="line2d_13">
    <path d="M 52.699125 116.141938 
L 58.459125 116.141938 
L 58.459125 69.760272 
L 52.699125 69.760272 
L 52.699125 116.141938 
" clip-path="url(#p46763f7d6b)" style="fill: none; stroke: #d7191c; stroke-linecap: square"/>
   </g>
   <g id="line2d_14">
    <path d="M 55.579125 116.141938 
L 55.579125 137.753299 
" clip-path="url(#p46763f7d6b)" style="fill: none; stroke: #d7191c; stroke-linecap: square"/>
   </g>
   <g id="line2d_15">
    <path d="M 55.579125 69.760272 
L 55.579125 19.296 
" clip-path="url(#p46763f7d6b)" style="fill: none; stroke: #d7191c; stroke-linecap: square"/>
   </g>
   <g id="line2d_16">
    <path d="M 54.139125 137.753299 
L 57.019125 137.753299 
" clip-path="url(#p46763f7d6b)" style="fill: none; stroke: #d7191c; stroke-linecap: square"/>
   </g>
   <g id="line2d_17">
    <path d="M 54.139125 19.296 
L 57.019125 19.296 
" clip-path="url(#p46763f7d6b)" style="fill: none; stroke: #d7191c; stroke-linecap: square"/>
   </g>
   <g id="line2d_18">
    <path d="M 98.779125 226.226996 
L 104.539125 226.226996 
L 104.539125 193.809345 
L 98.779125 193.809345 
L 98.779125 226.226996 
" clip-path="url(#p46763f7d6b)" style="fill: none; stroke: #d7191c; stroke-linecap: square"/>
   </g>
   <g id="line2d_19">
    <path d="M 101.659125 226.226996 
L 101.659125 238.802754 
" clip-path="url(#p46763f7d6b)" style="fill: none; stroke: #d7191c; stroke-linecap: square"/>
   </g>
   <g id="line2d_20">
    <path d="M 101.659125 193.809345 
L 101.659125 149.112679 
" clip-path="url(#p46763f7d6b)" style="fill: none; stroke: #d7191c; stroke-linecap: square"/>
   </g>
   <g id="line2d_21">
    <path d="M 100.219125 238.802754 
L 103.099125 238.802754 
" clip-path="url(#p46763f7d6b)" style="fill: none; stroke: #d7191c; stroke-linecap: square"/>
   </g>
   <g id="line2d_22">
    <path d="M 100.219125 149.112679 
L 103.099125 149.112679 
" clip-path="url(#p46763f7d6b)" style="fill: none; stroke: #d7191c; stroke-linecap: square"/>
   </g>
   <g id="line2d_23">
    <path d="M 144.859125 254.927208 
L 150.619125 254.927208 
L 150.619125 216.817804 
L 144.859125 216.817804 
L 144.859125 254.927208 
" clip-path="url(#p46763f7d6b)" style="fill: none; stroke: #d7191c; stroke-linecap: square"/>
   </g>
   <g id="line2d_24">
    <path d="M 147.739125 254.927208 
L 147.739125 255.173345 
" clip-path="url(#p46763f7d6b)" style="fill: none; stroke: #d7191c; stroke-linecap: square"/>
   </g>
   <g id="line2d_25">
    <path d="M 147.739125 216.817804 
L 147.739125 168.503418 
" clip-path="url(#p46763f7d6b)" style="fill: none; stroke: #d7191c; stroke-linecap: square"/>
   </g>
   <g id="line2d_26">
    <path d="M 146.299125 255.173345 
L 149.179125 255.173345 
" clip-path="url(#p46763f7d6b)" style="fill: none; stroke: #d7191c; stroke-linecap: square"/>
   </g>
   <g id="line2d_27">
    <path d="M 146.299125 168.503418 
L 149.179125 168.503418 
" clip-path="url(#p46763f7d6b)" style="fill: none; stroke: #d7191c; stroke-linecap: square"/>
   </g>
   <g id="line2d_28">
    <path d="M 190.939125 261.167434 
L 196.699125 261.167434 
L 196.699125 261.012132 
L 190.939125 261.012132 
L 190.939125 261.167434 
" clip-path="url(#p46763f7d6b)" style="fill: none; stroke: #d7191c; stroke-linecap: square"/>
   </g>
   <g id="line2d_29">
    <path d="M 193.819125 261.167434 
L 193.819125 261.216 
" clip-path="url(#p46763f7d6b)" style="fill: none; stroke: #d7191c; stroke-linecap: square"/>
   </g>
   <g id="line2d_30">
    <path d="M 193.819125 261.012132 
L 193.819125 232.493777 
" clip-path="url(#p46763f7d6b)" style="fill: none; stroke: #d7191c; stroke-linecap: square"/>
   </g>
   <g id="line2d_31">
    <path d="M 192.379125 261.216 
L 195.259125 261.216 
" clip-path="url(#p46763f7d6b)" style="fill: none; stroke: #d7191c; stroke-linecap: square"/>
   </g>
   <g id="line2d_32">
    <path d="M 192.379125 232.493777 
L 195.259125 232.493777 
" clip-path="url(#p46763f7d6b)" style="fill: none; stroke: #d7191c; stroke-linecap: square"/>
   </g>
   <g id="line2d_33">
    <path d="M 237.019125 258.496104 
L 242.779125 258.496104 
L 242.779125 257.709084 
L 237.019125 257.709084 
L 237.019125 258.496104 
" clip-path="url(#p46763f7d6b)" style="fill: none; stroke: #d7191c; stroke-linecap: square"/>
   </g>
   <g id="line2d_34">
    <path d="M 239.899125 258.496104 
L 239.899125 258.646977 
" clip-path="url(#p46763f7d6b)" style="fill: none; stroke: #d7191c; stroke-linecap: square"/>
   </g>
   <g id="line2d_35">
    <path d="M 239.899125 257.709084 
L 239.899125 253.392592 
" clip-path="url(#p46763f7d6b)" style="fill: none; stroke: #d7191c; stroke-linecap: square"/>
   </g>
   <g id="line2d_36">
    <path d="M 238.459125 258.646977 
L 241.339125 258.646977 
" clip-path="url(#p46763f7d6b)" style="fill: none; stroke: #d7191c; stroke-linecap: square"/>
   </g>
   <g id="line2d_37">
    <path d="M 238.459125 253.392592 
L 241.339125 253.392592 
" clip-path="url(#p46763f7d6b)" style="fill: none; stroke: #d7191c; stroke-linecap: square"/>
   </g>
   <g id="line2d_38">
    <path d="M 283.099125 247.399351 
L 288.859125 247.399351 
L 288.859125 246.508974 
L 283.099125 246.508974 
L 283.099125 247.399351 
" clip-path="url(#p46763f7d6b)" style="fill: none; stroke: #d7191c; stroke-linecap: square"/>
   </g>
   <g id="line2d_39">
    <path d="M 285.979125 247.399351 
L 285.979125 247.629457 
" clip-path="url(#p46763f7d6b)" style="fill: none; stroke: #d7191c; stroke-linecap: square"/>
   </g>
   <g id="line2d_40">
    <path d="M 285.979125 246.508974 
L 285.979125 243.272033 
" clip-path="url(#p46763f7d6b)" style="fill: none; stroke: #d7191c; stroke-linecap: square"/>
   </g>
   <g id="line2d_41">
    <path d="M 284.539125 247.629457 
L 287.419125 247.629457 
" clip-path="url(#p46763f7d6b)" style="fill: none; stroke: #d7191c; stroke-linecap: square"/>
   </g>
   <g id="line2d_42">
    <path d="M 284.539125 243.272033 
L 287.419125 243.272033 
" clip-path="url(#p46763f7d6b)" style="fill: none; stroke: #d7191c; stroke-linecap: square"/>
   </g>
   <g id="line2d_43">
    <path d="M 329.179125 216.752891 
L 334.939125 216.752891 
L 334.939125 213.83735 
L 329.179125 213.83735 
L 329.179125 216.752891 
" clip-path="url(#p46763f7d6b)" style="fill: none; stroke: #d7191c; stroke-linecap: square"/>
   </g>
   <g id="line2d_44">
    <path d="M 332.059125 216.752891 
L 332.059125 217.421931 
" clip-path="url(#p46763f7d6b)" style="fill: none; stroke: #d7191c; stroke-linecap: square"/>
   </g>
   <g id="line2d_45">
    <path d="M 332.059125 213.83735 
L 332.059125 207.568126 
" clip-path="url(#p46763f7d6b)" style="fill: none; stroke: #d7191c; stroke-linecap: square"/>
   </g>
   <g id="line2d_46">
    <path d="M 330.619125 217.421931 
L 333.499125 217.421931 
" clip-path="url(#p46763f7d6b)" style="fill: none; stroke: #d7191c; stroke-linecap: square"/>
   </g>
   <g id="line2d_47">
    <path d="M 330.619125 207.568126 
L 333.499125 207.568126 
" clip-path="url(#p46763f7d6b)" style="fill: none; stroke: #d7191c; stroke-linecap: square"/>
   </g>
   <g id="line2d_48">
    <path d="M 375.259125 84.631988 
L 381.019125 84.631988 
L 381.019125 83.734279 
L 375.259125 83.734279 
L 375.259125 84.631988 
" clip-path="url(#p46763f7d6b)" style="fill: none; stroke: #d7191c; stroke-linecap: square"/>
   </g>
   <g id="line2d_49">
    <path d="M 378.139125 84.631988 
L 378.139125 86.050221 
" clip-path="url(#p46763f7d6b)" style="fill: none; stroke: #d7191c; stroke-linecap: square"/>
   </g>
   <g id="line2d_50">
    <path d="M 378.139125 83.734279 
L 378.139125 74.715857 
" clip-path="url(#p46763f7d6b)" style="fill: none; stroke: #d7191c; stroke-linecap: square"/>
   </g>
   <g id="line2d_51">
    <path d="M 376.699125 86.050221 
L 379.579125 86.050221 
" clip-path="url(#p46763f7d6b)" style="fill: none; stroke: #d7191c; stroke-linecap: square"/>
   </g>
   <g id="line2d_52">
    <path d="M 376.699125 74.715857 
L 379.579125 74.715857 
" clip-path="url(#p46763f7d6b)" style="fill: none; stroke: #d7191c; stroke-linecap: square"/>
   </g>
   <g id="line2d_53">
    <path d="M 63.067125 178.188795 
L 68.827125 178.188795 
L 68.827125 172.218543 
L 63.067125 172.218543 
L 63.067125 178.188795 
" clip-path="url(#p46763f7d6b)" style="fill: none; stroke: #2c7bb6; stroke-linecap: square"/>
   </g>
   <g id="line2d_54">
    <path d="M 65.947125 178.188795 
L 65.947125 179.66008 
" clip-path="url(#p46763f7d6b)" style="fill: none; stroke: #2c7bb6; stroke-linecap: square"/>
   </g>
   <g id="line2d_55">
    <path d="M 65.947125 172.218543 
L 65.947125 165.653868 
" clip-path="url(#p46763f7d6b)" style="fill: none; stroke: #2c7bb6; stroke-linecap: square"/>
   </g>
   <g id="line2d_56">
    <path d="M 64.507125 179.66008 
L 67.387125 179.66008 
" clip-path="url(#p46763f7d6b)" style="fill: none; stroke: #2c7bb6; stroke-linecap: square"/>
   </g>
   <g id="line2d_57">
    <path d="M 64.507125 165.653868 
L 67.387125 165.653868 
" clip-path="url(#p46763f7d6b)" style="fill: none; stroke: #2c7bb6; stroke-linecap: square"/>
   </g>
   <g id="line2d_58">
    <path d="M 109.147125 236.888007 
L 114.907125 236.888007 
L 114.907125 235.863491 
L 109.147125 235.863491 
L 109.147125 236.888007 
" clip-path="url(#p46763f7d6b)" style="fill: none; stroke: #2c7bb6; stroke-linecap: square"/>
   </g>
   <g id="line2d_59">
    <path d="M 112.027125 236.888007 
L 112.027125 237.186764 
" clip-path="url(#p46763f7d6b)" style="fill: none; stroke: #2c7bb6; stroke-linecap: square"/>
   </g>
   <g id="line2d_60">
    <path d="M 112.027125 235.863491 
L 112.027125 234.854216 
" clip-path="url(#p46763f7d6b)" style="fill: none; stroke: #2c7bb6; stroke-linecap: square"/>
   </g>
   <g id="line2d_61">
    <path d="M 110.587125 237.186764 
L 113.467125 237.186764 
" clip-path="url(#p46763f7d6b)" style="fill: none; stroke: #2c7bb6; stroke-linecap: square"/>
   </g>
   <g id="line2d_62">
    <path d="M 110.587125 234.854216 
L 113.467125 234.854216 
" clip-path="url(#p46763f7d6b)" style="fill: none; stroke: #2c7bb6; stroke-linecap: square"/>
   </g>
   <g id="line2d_63">
    <path d="M 155.227125 255.922523 
L 160.987125 255.922523 
L 160.987125 255.40729 
L 155.227125 255.40729 
L 155.227125 255.922523 
" clip-path="url(#p46763f7d6b)" style="fill: none; stroke: #2c7bb6; stroke-linecap: square"/>
   </g>
   <g id="line2d_64">
    <path d="M 158.107125 255.922523 
L 158.107125 256.015759 
" clip-path="url(#p46763f7d6b)" style="fill: none; stroke: #2c7bb6; stroke-linecap: square"/>
   </g>
   <g id="line2d_65">
    <path d="M 158.107125 255.40729 
L 158.107125 254.447932 
" clip-path="url(#p46763f7d6b)" style="fill: none; stroke: #2c7bb6; stroke-linecap: square"/>
   </g>
   <g id="line2d_66">
    <path d="M 156.667125 256.015759 
L 159.547125 256.015759 
" clip-path="url(#p46763f7d6b)" style="fill: none; stroke: #2c7bb6; stroke-linecap: square"/>
   </g>
   <g id="line2d_67">
    <path d="M 156.667125 254.447932 
L 159.547125 254.447932 
" clip-path="url(#p46763f7d6b)" style="fill: none; stroke: #2c7bb6; stroke-linecap: square"/>
   </g>
   <g id="line2d_68">
    <path d="M 201.307125 257.196158 
L 207.067125 257.196158 
L 207.067125 256.968209 
L 201.307125 256.968209 
L 201.307125 257.196158 
" clip-path="url(#p46763f7d6b)" style="fill: none; stroke: #2c7bb6; stroke-linecap: square"/>
   </g>
   <g id="line2d_69">
    <path d="M 204.187125 257.196158 
L 204.187125 257.346996 
" clip-path="url(#p46763f7d6b)" style="fill: none; stroke: #2c7bb6; stroke-linecap: square"/>
   </g>
   <g id="line2d_70">
    <path d="M 204.187125 256.968209 
L 204.187125 254.969822 
" clip-path="url(#p46763f7d6b)" style="fill: none; stroke: #2c7bb6; stroke-linecap: square"/>
   </g>
   <g id="line2d_71">
    <path d="M 202.747125 257.346996 
L 205.627125 257.346996 
" clip-path="url(#p46763f7d6b)" style="fill: none; stroke: #2c7bb6; stroke-linecap: square"/>
   </g>
   <g id="line2d_72">
    <path d="M 202.747125 254.969822 
L 205.627125 254.969822 
" clip-path="url(#p46763f7d6b)" style="fill: none; stroke: #2c7bb6; stroke-linecap: square"/>
   </g>
   <g id="line2d_73">
    <path d="M 247.387125 255.100639 
L 253.147125 255.100639 
L 253.147125 254.902939 
L 247.387125 254.902939 
L 247.387125 255.100639 
" clip-path="url(#p46763f7d6b)" style="fill: none; stroke: #2c7bb6; stroke-linecap: square"/>
   </g>
   <g id="line2d_74">
    <path d="M 250.267125 255.100639 
L 250.267125 255.271196 
" clip-path="url(#p46763f7d6b)" style="fill: none; stroke: #2c7bb6; stroke-linecap: square"/>
   </g>
   <g id="line2d_75">
    <path d="M 250.267125 254.902939 
L 250.267125 254.599754 
" clip-path="url(#p46763f7d6b)" style="fill: none; stroke: #2c7bb6; stroke-linecap: square"/>
   </g>
   <g id="line2d_76">
    <path d="M 248.827125 255.271196 
L 251.707125 255.271196 
" clip-path="url(#p46763f7d6b)" style="fill: none; stroke: #2c7bb6; stroke-linecap: square"/>
   </g>
   <g id="line2d_77">
    <path d="M 248.827125 254.599754 
L 251.707125 254.599754 
" clip-path="url(#p46763f7d6b)" style="fill: none; stroke: #2c7bb6; stroke-linecap: square"/>
   </g>
   <g id="line2d_78">
    <path d="M 293.467125 251.756408 
L 299.227125 251.756408 
L 299.227125 251.516087 
L 293.467125 251.516087 
L 293.467125 251.756408 
" clip-path="url(#p46763f7d6b)" style="fill: none; stroke: #2c7bb6; stroke-linecap: square"/>
   </g>
   <g id="line2d_79">
    <path d="M 296.347125 251.756408 
L 296.347125 251.936101 
" clip-path="url(#p46763f7d6b)" style="fill: none; stroke: #2c7bb6; stroke-linecap: square"/>
   </g>
   <g id="line2d_80">
    <path d="M 296.347125 251.516087 
L 296.347125 251.102543 
" clip-path="url(#p46763f7d6b)" style="fill: none; stroke: #2c7bb6; stroke-linecap: square"/>
   </g>
   <g id="line2d_81">
    <path d="M 294.907125 251.936101 
L 297.787125 251.936101 
" clip-path="url(#p46763f7d6b)" style="fill: none; stroke: #2c7bb6; stroke-linecap: square"/>
   </g>
   <g id="line2d_82">
    <path d="M 294.907125 251.102543 
L 297.787125 251.102543 
" clip-path="url(#p46763f7d6b)" style="fill: none; stroke: #2c7bb6; stroke-linecap: square"/>
   </g>
   <g id="line2d_83"/>
   <g id="line2d_84"/>
   <g id="line2d_85">
    <path d="M 52.699125 94.653215 
L 58.459125 94.653215 
" clip-path="url(#p46763f7d6b)" style="fill: none; stroke: #d7191c; stroke-linecap: square"/>
   </g>
   <g id="line2d_86">
    <path d="M 98.779125 206.652733 
L 104.539125 206.652733 
" clip-path="url(#p46763f7d6b)" style="fill: none; stroke: #d7191c; stroke-linecap: square"/>
   </g>
   <g id="line2d_87">
    <path d="M 144.859125 253.632719 
L 150.619125 253.632719 
" clip-path="url(#p46763f7d6b)" style="fill: none; stroke: #d7191c; stroke-linecap: square"/>
   </g>
   <g id="line2d_88">
    <path d="M 190.939125 261.128889 
L 196.699125 261.128889 
" clip-path="url(#p46763f7d6b)" style="fill: none; stroke: #d7191c; stroke-linecap: square"/>
   </g>
   <g id="line2d_89">
    <path d="M 237.019125 258.440795 
L 242.779125 258.440795 
" clip-path="url(#p46763f7d6b)" style="fill: none; stroke: #d7191c; stroke-linecap: square"/>
   </g>
   <g id="line2d_90">
    <path d="M 283.099125 247.224597 
L 288.859125 247.224597 
" clip-path="url(#p46763f7d6b)" style="fill: none; stroke: #d7191c; stroke-linecap: square"/>
   </g>
   <g id="line2d_91">
    <path d="M 329.179125 215.941086 
L 334.939125 215.941086 
" clip-path="url(#p46763f7d6b)" style="fill: none; stroke: #d7191c; stroke-linecap: square"/>
   </g>
   <g id="line2d_92">
    <path d="M 375.259125 84.248046 
L 381.019125 84.248046 
" clip-path="url(#p46763f7d6b)" style="fill: none; stroke: #d7191c; stroke-linecap: square"/>
   </g>
   <g id="line2d_93">
    <path d="M 63.067125 176.229694 
L 68.827125 176.229694 
" clip-path="url(#p46763f7d6b)" style="fill: none; stroke: #2c7bb6; stroke-linecap: square"/>
   </g>
   <g id="line2d_94">
    <path d="M 109.147125 236.457986 
L 114.907125 236.457986 
" clip-path="url(#p46763f7d6b)" style="fill: none; stroke: #2c7bb6; stroke-linecap: square"/>
   </g>
   <g id="line2d_95">
    <path d="M 155.227125 255.739747 
L 160.987125 255.739747 
" clip-path="url(#p46763f7d6b)" style="fill: none; stroke: #2c7bb6; stroke-linecap: square"/>
   </g>
   <g id="line2d_96">
    <path d="M 201.307125 257.078 
L 207.067125 257.078 
" clip-path="url(#p46763f7d6b)" style="fill: none; stroke: #2c7bb6; stroke-linecap: square"/>
   </g>
   <g id="line2d_97">
    <path d="M 247.387125 254.994263 
L 253.147125 254.994263 
" clip-path="url(#p46763f7d6b)" style="fill: none; stroke: #2c7bb6; stroke-linecap: square"/>
   </g>
   <g id="line2d_98">
    <path d="M 293.467125 251.623571 
L 299.227125 251.623571 
" clip-path="url(#p46763f7d6b)" style="fill: none; stroke: #2c7bb6; stroke-linecap: square"/>
   </g>
   <g id="patch_3">
    <path d="M 40.603125 273.312 
L 40.603125 7.2 
" style="fill: none; stroke: #000000; stroke-width: 0.8; stroke-linejoin: miter; stroke-linecap: square"/>
   </g>
   <g id="patch_4">
    <path d="M 397.723125 273.312 
L 397.723125 7.2 
" style="fill: none; stroke: #000000; stroke-width: 0.8; stroke-linejoin: miter; stroke-linecap: square"/>
   </g>
   <g id="patch_5">
    <path d="M 40.603125 273.312 
L 397.723125 273.312 
" style="fill: none; stroke: #000000; stroke-width: 0.8; stroke-linejoin: miter; stroke-linecap: square"/>
   </g>
   <g id="patch_6">
    <path d="M 40.603125 7.2 
L 397.723125 7.2 
" style="fill: none; stroke: #000000; stroke-width: 0.8; stroke-linejoin: miter; stroke-linecap: square"/>
   </g>
   <g id="legend_1">
    <g id="patch_7">
     <path d="M 314.318437 44.55625 
L 390.723125 44.55625 
Q 392.723125 44.55625 392.723125 42.55625 
L 392.723125 14.2 
Q 392.723125 12.2 390.723125 12.2 
L 314.318437 12.2 
Q 312.318437 12.2 312.318437 14.2 
L 312.318437 42.55625 
Q 312.318437 44.55625 314.318437 44.55625 
z
" style="fill: #ffffff; opacity: 0.8; stroke: #cccccc; stroke-linejoin: miter"/>
    </g>
    <g id="line2d_99">
     <path d="M 316.318437 20.298437 
L 326.318437 20.298437 
L 336.318437 20.298437 
" style="fill: none; stroke: #d7191c; stroke-width: 1.5; stroke-linecap: square"/>
    </g>
    <g id="text_15">
     <!-- coherent -->
     <g transform="translate(344.318437 23.798437) scale(0.1 -0.1)">
      <defs>
       <path id="DejaVuSans-63" d="M 3122 3366 
L 3122 2828 
Q 2878 2963 2633 3030 
Q 2388 3097 2138 3097 
Q 1578 3097 1268 2742 
Q 959 2388 959 1747 
Q 959 1106 1268 751 
Q 1578 397 2138 397 
Q 2388 397 2633 464 
Q 2878 531 3122 666 
L 3122 134 
Q 2881 22 2623 -34 
Q 2366 -91 2075 -91 
Q 1284 -91 818 406 
Q 353 903 353 1747 
Q 353 2603 823 3093 
Q 1294 3584 2113 3584 
Q 2378 3584 2631 3529 
Q 2884 3475 3122 3366 
z
" transform="scale(0.015625)"/>
       <path id="DejaVuSans-68" d="M 3513 2113 
L 3513 0 
L 2938 0 
L 2938 2094 
Q 2938 2591 2744 2837 
Q 2550 3084 2163 3084 
Q 1697 3084 1428 2787 
Q 1159 2491 1159 1978 
L 1159 0 
L 581 0 
L 581 4863 
L 1159 4863 
L 1159 2956 
Q 1366 3272 1645 3428 
Q 1925 3584 2291 3584 
Q 2894 3584 3203 3211 
Q 3513 2838 3513 2113 
z
" transform="scale(0.015625)"/>
      </defs>
      <use xlink:href="#DejaVuSans-63"/>
      <use xlink:href="#DejaVuSans-6f" x="54.980469"/>
      <use xlink:href="#DejaVuSans-68" x="116.162109"/>
      <use xlink:href="#DejaVuSans-65" x="179.541016"/>
      <use xlink:href="#DejaVuSans-72" x="241.064453"/>
      <use xlink:href="#DejaVuSans-65" x="279.927734"/>
      <use xlink:href="#DejaVuSans-6e" x="341.451172"/>
      <use xlink:href="#DejaVuSans-74" x="404.830078"/>
     </g>
    </g>
    <g id="line2d_100">
     <path d="M 316.318437 34.976562 
L 326.318437 34.976562 
L 336.318437 34.976562 
" style="fill: none; stroke: #2c7bb6; stroke-width: 1.5; stroke-linecap: square"/>
    </g>
    <g id="text_16">
     <!-- collated -->
     <g transform="translate(344.318437 38.476562) scale(0.1 -0.1)">
      <defs>
       <path id="DejaVuSans-6c" d="M 603 4863 
L 1178 4863 
L 1178 0 
L 603 0 
L 603 4863 
z
" transform="scale(0.015625)"/>
       <path id="DejaVuSans-61" d="M 2194 1759 
Q 1497 1759 1228 1600 
Q 959 1441 959 1056 
Q 959 750 1161 570 
Q 1363 391 1709 391 
Q 2188 391 2477 730 
Q 2766 1069 2766 1631 
L 2766 1759 
L 2194 1759 
z
M 3341 1997 
L 3341 0 
L 2766 0 
L 2766 531 
Q 2569 213 2275 61 
Q 1981 -91 1556 -91 
Q 1019 -91 701 211 
Q 384 513 384 1019 
Q 384 1609 779 1909 
Q 1175 2209 1959 2209 
L 2766 2209 
L 2766 2266 
Q 2766 2663 2505 2880 
Q 2244 3097 1772 3097 
Q 1472 3097 1187 3025 
Q 903 2953 641 2809 
L 641 3341 
Q 956 3463 1253 3523 
Q 1550 3584 1831 3584 
Q 2591 3584 2966 3190 
Q 3341 2797 3341 1997 
z
" transform="scale(0.015625)"/>
      </defs>
      <use xlink:href="#DejaVuSans-63"/>
      <use xlink:href="#DejaVuSans-6f" x="54.980469"/>
      <use xlink:href="#DejaVuSans-6c" x="116.162109"/>
      <use xlink:href="#DejaVuSans-6c" x="143.945312"/>
      <use xlink:href="#DejaVuSans-61" x="171.728516"/>
      <use xlink:href="#DejaVuSans-74" x="233.007812"/>
      <use xlink:href="#DejaVuSans-65" x="272.216797"/>
      <use xlink:href="#DejaVuSans-64" x="333.740234"/>
     </g>
    </g>
   </g>
  </g>
 </g>
 <defs>
  <clipPath id="p46763f7d6b">
   <rect x="40.603125" y="7.2" width="357.12" height="266.112"/>
  </clipPath>
 </defs>
</svg>
