solid Default PSHELL Property
   color       0.74118 0.40392 0.16863
  facet normal 3.9631228E-15 2.22422389E-15 1
    outer loop
      vertex -0.0186833644 -0.0265682772 0.5
      vertex -0.0208739046 -0.0476227095 0.5
      vertex -0.00423636284 -0.0523099489 0.5
    endloop
  endfacet
  facet normal 0 0 1
    outer loop
      vertex 0.0117500107 -0.0441950878 0.5
      vertex -0.0186833644 -0.0265682772 0.5
      vertex -0.00423636284 -0.0523099489 0.5
    endloop
  endfacet
  facet normal -1.87184471E-15 -1.92624587E-15 1
    outer loop
      vertex -0.00775865274 -0.00834116913 0.5
      vertex 0.0243871463 -0.0107607941 0.5
      vertex 0.00525648754 0.00782957532 0.5
    endloop
  endfacet
  facet normal -2.16243893E-15 -5.78691994E-15 1
    outer loop
      vertex -0.00775865274 -0.00834116913 0.5
      vertex 0.0197617695 -0.0282174392 0.5
      vertex 0.0243871463 -0.0107607941 0.5
    endloop
  endfacet
  facet normal 1.40771249E-15 -8.43735221E-16 1
    outer loop
      vertex -0.0186833644 -0.0265682772 0.5
      vertex 0.0197617695 -0.0282174392 0.5
      vertex -0.00775865274 -0.00834116913 0.5
    endloop
  endfacet
  facet normal 1.55939875E-15 2.69236268E-15 1
    outer loop
      vertex -0.0186833644 -0.0265682772 0.5
      vertex 0.0117500107 -0.0441950878 0.5
      vertex 0.0197617695 -0.0282174392 0.5
    endloop
  endfacet
  facet normal 0.893903249 -0.448234746 0.00475327678
    outer loop
      vertex 0.0197617695 -0.0282174392 0.5
      vertex 0.0117500107 -0.0441950878 0.5
      vertex 0.016796289 -0.0367825313 0.25
    endloop
  endfacet
  facet normal 0.874861226 -0.484362427 0.00329771749
    outer loop
      vertex 0.016796289 -0.0367825313 0.25
      vertex 0.0117500107 -0.0441950878 0.5
      vertex 0.0145929032 -0.0407623131 0.25
    endloop
  endfacet
  facet normal 0.769011813 -0.639234566 -3.25211444E-05
    outer loop
      vertex 0.0145929032 -0.0407623131 0.25
      vertex 0.0117500107 -0.0441950878 0.5
      vertex 0.0116949128 -0.0442486529 0.25
    endloop
  endfacet
  facet normal 0.605209905 -0.796065933 3.71822045E-05
    outer loop
      vertex 0.0116949128 -0.0442486529 0.25
      vertex 0.0117500107 -0.0441950878 0.5
      vertex 0.00813067027 -0.0469583717 0.25
    endloop
  endfacet
  facet normal 0.481405872 -0.876483237 0.00505197858
    outer loop
      vertex 0.00813067027 -0.0469583717 0.25
      vertex -0.00423636284 -0.0523099489 0.5
      vertex 0.0041673522 -0.0491352127 0.25
    endloop
  endfacet
  facet normal 0.45263234 -0.891691121 0.00330306103
    outer loop
      vertex 0.00813067027 -0.0469583717 0.25
      vertex 0.0117500107 -0.0441950878 0.5
      vertex -0.00423636284 -0.0523099489 0.5
    endloop
  endfacet
  facet normal 0.394029013 -0.919096655 0.00157367225
    outer loop
      vertex 0.0041673522 -0.0491352127 0.25
      vertex -0.00423636284 -0.0523099489 0.5
      vertex 5.80176141E-06 -0.0509193249 0.25
    endloop
  endfacet
  facet normal 0.310776947 -0.950482871 -1.35893178E-05
    outer loop
      vertex -0.00423636284 -0.0523099489 0.5
      vertex -0.00429610632 -0.0523259088 0.25
      vertex 5.80176141E-06 -0.0509193249 0.25
    endloop
  endfacet
  facet normal 0.160013799 -0.987114777 2.47777022E-05
    outer loop
      vertex -0.00429610632 -0.0523259088 0.25
      vertex -0.00423636284 -0.0523099489 0.5
      vertex -0.00879742813 -0.0530524468 0.375
    endloop
  endfacet
  facet normal -0.0547001143 -0.998471363 0.00792682905
    outer loop
      vertex -0.00879742813 -0.0530524468 0.375
      vertex -0.00423636284 -0.0523099489 0.5
      vertex -0.0110258499 -0.0529303652 0.375
    endloop
  endfacet
  facet normal -0.256654343 -0.96627922 0.0208090518
    outer loop
      vertex -0.0110258499 -0.0529303652 0.375
      vertex -0.0208739046 -0.0476227095 0.5
      vertex -0.0131776357 -0.0523588274 0.375
    endloop
  endfacet
  facet normal -0.271119166 -0.962348195 0.0195025327
    outer loop
      vertex -0.0110258499 -0.0529303652 0.375
      vertex -0.00423636284 -0.0523099489 0.5
      vertex -0.0208739046 -0.0476227095 0.5
    endloop
  endfacet
  facet normal -0.512577552 -0.858640382 0.000973499063
    outer loop
      vertex -0.0208739046 -0.0476227095 0.5
      vertex -0.0170984884 -0.0501599397 0.25
      vertex -0.0131776357 -0.0523588274 0.375
    endloop
  endfacet
  facet normal -0.48914689 -0.872201422 6.33105138E-17
    outer loop
      vertex -0.0131776357 -0.0523588274 0.375
      vertex -0.0170984884 -0.0501599397 0.25
      vertex -0.0131776357 -0.0523588274 0.25
    endloop
  endfacet
  facet normal -0.557783859 -0.829986245 0
    outer loop
      vertex -0.0208739046 -0.0476227095 0.28
      vertex -0.0170984884 -0.0501599397 0.25
      vertex -0.0208739046 -0.0476227095 0.3
    endloop
  endfacet
  facet normal -0.557783859 -0.829986245 0
    outer loop
      vertex -0.0208739046 -0.0476227095 0.3
      vertex -0.0170984884 -0.0501599397 0.25
      vertex -0.0208739046 -0.0476227095 0.32
    endloop
  endfacet
  facet normal -0.557783859 -0.829986245 0
    outer loop
      vertex -0.0208739046 -0.0476227095 0.32
      vertex -0.0170984884 -0.0501599397 0.25
      vertex -0.0208739046 -0.0476227095 0.34
    endloop
  endfacet
  facet normal -0.557783859 -0.829986245 0
    outer loop
      vertex -0.0208739046 -0.0476227095 0.34
      vertex -0.0170984884 -0.0501599397 0.25
      vertex -0.0208739046 -0.0476227095 0.36
    endloop
  endfacet
  facet normal -0.557783859 -0.829986245 0
    outer loop
      vertex -0.0208739046 -0.0476227095 0.36
      vertex -0.0170984884 -0.0501599397 0.25
      vertex -0.0208739046 -0.0476227095 0.38
    endloop
  endfacet
  facet normal -0.557783859 -0.829986245 0
    outer loop
      vertex -0.0208739046 -0.0476227095 0.38
      vertex -0.0170984884 -0.0501599397 0.25
      vertex -0.0208739046 -0.0476227095 0.4
    endloop
  endfacet
  facet normal -0.557783859 -0.829986245 0
    outer loop
      vertex -0.0208739046 -0.0476227095 0.4
      vertex -0.0170984884 -0.0501599397 0.25
      vertex -0.0208739046 -0.0476227095 0.42
    endloop
  endfacet
  facet normal -0.557783859 -0.829986245 0
    outer loop
      vertex -0.0208739046 -0.0476227095 0.42
      vertex -0.0170984884 -0.0501599397 0.25
      vertex -0.0208739046 -0.0476227095 0.44
    endloop
  endfacet
  facet normal -0.557783859 -0.829986245 0
    outer loop
      vertex -0.0208739046 -0.0476227095 0.44
      vertex -0.0170984884 -0.0501599397 0.25
      vertex -0.0208739046 -0.0476227095 0.46
    endloop
  endfacet
  facet normal -0.557783859 -0.829986245 0
    outer loop
      vertex -0.0208739046 -0.0476227095 0.46
      vertex -0.0170984884 -0.0501599397 0.25
      vertex -0.0208739046 -0.0476227095 0.48
    endloop
  endfacet
  facet normal -0.557783859 -0.829986245 0
    outer loop
      vertex -0.0170984884 -0.0501599397 0.25
      vertex -0.0208739046 -0.0476227095 0.5
      vertex -0.0208739046 -0.0476227095 0.48
    endloop
  endfacet
  facet normal 0.966643557 -0.256125424 0
    outer loop
      vertex 0.0243871463 -0.0107607941 0.48
      vertex 0.0197617695 -0.0282174392 0.5
      vertex 0.0243871463 -0.0107607941 0.46
    endloop
  endfacet
  facet normal 0.966643557 -0.256125424 0
    outer loop
      vertex 0.0243871463 -0.0107607941 0.46
      vertex 0.0197617695 -0.0282174392 0.5
      vertex 0.0243871463 -0.0107607941 0.44
    endloop
  endfacet
  facet normal 0.966643557 -0.256125424 0
    outer loop
      vertex 0.0243871463 -0.0107607941 0.44
      vertex 0.0197617695 -0.0282174392 0.5
      vertex 0.0243871463 -0.0107607941 0.42
    endloop
  endfacet
  facet normal 0.966643557 -0.256125424 0
    outer loop
      vertex 0.0243871463 -0.0107607941 0.42
      vertex 0.0197617695 -0.0282174392 0.5
      vertex 0.0243871463 -0.0107607941 0.4
    endloop
  endfacet
  facet normal 0.966643557 -0.256125424 -3.75228544E-17
    outer loop
      vertex 0.0243871463 -0.0107607941 0.4
      vertex 0.0197617695 -0.0282174392 0.5
      vertex 0.0243871463 -0.0107607941 0.38
    endloop
  endfacet
  facet normal 0.966643557 -0.256125424 3.75228544E-17
    outer loop
      vertex 0.0243871463 -0.0107607941 0.38
      vertex 0.0197617695 -0.0282174392 0.5
      vertex 0.0243871463 -0.0107607941 0.36
    endloop
  endfacet
  facet normal 0.966643557 -0.256125424 0
    outer loop
      vertex 0.0243871463 -0.0107607941 0.36
      vertex 0.0197617695 -0.0282174392 0.5
      vertex 0.0243871463 -0.0107607941 0.34
    endloop
  endfacet
  facet normal 0.966643557 -0.256125424 0
    outer loop
      vertex 0.0243871463 -0.0107607941 0.34
      vertex 0.0197617695 -0.0282174392 0.5
      vertex 0.0243871463 -0.0107607941 0.32
    endloop
  endfacet
  facet normal 0.966643557 -0.256125424 0
    outer loop
      vertex 0.0243871463 -0.0107607941 0.32
      vertex 0.0197617695 -0.0282174392 0.5
      vertex 0.0243871463 -0.0107607941 0.3
    endloop
  endfacet
  facet normal 0.966643557 -0.256125424 0
    outer loop
      vertex 0.0243871463 -0.0107607941 0.3
      vertex 0.0197617695 -0.0282174392 0.5
      vertex 0.0243871463 -0.0107607941 0.28
    endloop
  endfacet
  facet normal 0.966643557 -0.256125424 0
    outer loop
      vertex 0.0243871463 -0.0107607941 0.28
      vertex 0.0197617695 -0.0282174392 0.5
      vertex 0.0243871463 -0.0107607941 0.26
    endloop
  endfacet
  facet normal 0.966643557 -0.256125424 0
    outer loop
      vertex 0.0197617695 -0.0282174392 0.5
      vertex 0.0243871463 -0.0107607941 0.24
      vertex 0.0243871463 -0.0107607941 0.26
    endloop
  endfacet
  facet normal 0.966643557 -0.256125424 0
    outer loop
      vertex 0.0197617695 -0.0282174392 0.5
      vertex 0.0243871463 -0.0107607941 0.22
      vertex 0.0243871463 -0.0107607941 0.24
    endloop
  endfacet
  facet normal 0.966643557 -0.256125424 0
    outer loop
      vertex 0.0197617695 -0.0282174392 0.5
      vertex 0.0243871463 -0.0107607941 0.2
      vertex 0.0243871463 -0.0107607941 0.22
    endloop
  endfacet
  facet normal 0.966643557 -0.256125424 0
    outer loop
      vertex 0.0197617695 -0.0282174392 0.5
      vertex 0.0243871463 -0.0107607941 0.18
      vertex 0.0243871463 -0.0107607941 0.2
    endloop
  endfacet
  facet normal 0.966643557 -0.256125424 0
    outer loop
      vertex 0.0197617695 -0.0282174392 0.5
      vertex 0.0243871463 -0.0107607941 0.16
      vertex 0.0243871463 -0.0107607941 0.18
    endloop
  endfacet
  facet normal 0.966643557 -0.256125424 0
    outer loop
      vertex 0.0197617695 -0.0282174392 0.5
      vertex 0.0243871463 -0.0107607941 0.14
      vertex 0.0243871463 -0.0107607941 0.16
    endloop
  endfacet
  facet normal 0.966643557 -0.256125424 -2.22153393E-17
    outer loop
      vertex 0.0197617695 -0.0282174392 0.5
      vertex 0.0243871463 -0.0107607941 0.12
      vertex 0.0243871463 -0.0107607941 0.14
    endloop
  endfacet
  facet normal 0.966643557 -0.256125424 -1.37575566E-18
    outer loop
      vertex 0.0197617695 -0.0282174392 0.5
      vertex 0.0197617695 -0.0282174392 0
      vertex 0.0243871463 -0.0107607941 0.12
    endloop
  endfacet
  facet normal 0.966643557 -0.256125424 0
    outer loop
      vertex 0.0243871463 -0.0107607941 0.12
      vertex 0.0197617695 -0.0282174392 0
      vertex 0.0243871463 -0.0107607941 0.1
    endloop
  endfacet
  facet normal 0.966643557 -0.256125424 0
    outer loop
      vertex 0.0243871463 -0.0107607941 0.1
      vertex 0.0197617695 -0.0282174392 0
      vertex 0.0243871463 -0.0107607941 0.08
    endloop
  endfacet
  facet normal 0.966643557 -0.256125424 0
    outer loop
      vertex 0.0243871463 -0.0107607941 0.08
      vertex 0.0197617695 -0.0282174392 0
      vertex 0.0243871463 -0.0107607941 0.06
    endloop
  endfacet
  facet normal 0.966643557 -0.256125424 0
    outer loop
      vertex 0.0243871463 -0.0107607941 0.06
      vertex 0.0197617695 -0.0282174392 0
      vertex 0.0243871463 -0.0107607941 0.04
    endloop
  endfacet
  facet normal 0.893903249 -0.448234746 -0.00475327678
    outer loop
      vertex 0.0117500107 -0.0441950878 0
      vertex 0.0197617695 -0.0282174392 0
      vertex 0.016796289 -0.0367825313 0.25
    endloop
  endfacet
  facet normal 0.944964212 -0.327173711 2.536646E-19
    outer loop
      vertex 0.0197617695 -0.0282174392 0
      vertex 0.0197617695 -0.0282174392 0.5
      vertex 0.016796289 -0.0367825313 0.25
    endloop
  endfacet
  facet normal 0.159343239 -0.987223243 -5.87033242E-17
    outer loop
      vertex -0.00879742813 -0.0530524468 0.25
      vertex -0.00429610632 -0.0523259088 0.25
      vertex -0.00879742813 -0.0530524468 0.375
    endloop
  endfacet
  facet normal 0.874861226 -0.484362427 -0.00329771749
    outer loop
      vertex 0.0117500107 -0.0441950878 0
      vertex 0.016796289 -0.0367825313 0.25
      vertex 0.0145929032 -0.0407623131 0.25
    endloop
  endfacet
  facet normal 0.769011813 -0.639234566 3.25211444E-05
    outer loop
      vertex 0.0117500107 -0.0441950878 0
      vertex 0.0145929032 -0.0407623131 0.25
      vertex 0.0116949128 -0.0442486529 0.25
    endloop
  endfacet
  facet normal 0.452631381 -0.891689233 -0.003891628
    outer loop
      vertex -0.00423636284 -0.0523099489 0
      vertex 0.0117500107 -0.0441950878 0
      vertex 0.0041673522 -0.0491352127 0.25
    endloop
  endfacet
  facet normal 0.481410236 -0.876491183 -0.00271842603
    outer loop
      vertex 0.0041673522 -0.0491352127 0.25
      vertex 0.0117500107 -0.0441950878 0
      vertex 0.00813067027 -0.0469583717 0.25
    endloop
  endfacet
  facet normal 0.605209905 -0.796065933 -3.71822045E-05
    outer loop
      vertex 0.0117500107 -0.0441950878 0
      vertex 0.0116949128 -0.0442486529 0.25
      vertex 0.00813067027 -0.0469583717 0.25
    endloop
  endfacet
  facet normal -0.0547001143 -0.998471363 -0.00792682905
    outer loop
      vertex -0.0110258499 -0.0529303652 0.125
      vertex -0.00423636284 -0.0523099489 0
      vertex -0.00879742813 -0.0530524468 0.125
    endloop
  endfacet
  facet normal 0.160675359 -0.98700731 5.92495491E-17
    outer loop
      vertex -0.00423636284 -0.0523099489 0
      vertex -0.00879742813 -0.0530524468 0.25
      vertex -0.00879742813 -0.0530524468 0.125
    endloop
  endfacet
  facet normal 0.159343238 -0.987223243 -2.49448731E-05
    outer loop
      vertex -0.00423636284 -0.0523099489 0
      vertex -0.00429610632 -0.0523259088 0.25
      vertex -0.00879742813 -0.0530524468 0.25
    endloop
  endfacet
  facet normal 0.310776947 -0.950482871 1.35893178E-05
    outer loop
      vertex -0.00423636284 -0.0523099489 0
      vertex 5.80176141E-06 -0.0509193249 0.25
      vertex -0.00429610632 -0.0523259088 0.25
    endloop
  endfacet
  facet normal 0.394029013 -0.919096655 -0.00157367225
    outer loop
      vertex -0.00423636284 -0.0523099489 0
      vertex 0.0041673522 -0.0491352127 0.25
      vertex 5.80176141E-06 -0.0509193249 0.25
    endloop
  endfacet
  facet normal -0.48914689 -0.872201422 -5.42661547E-17
    outer loop
      vertex -0.0131776357 -0.0523588274 0.25
      vertex -0.0170984884 -0.0501599397 0.25
      vertex -0.0131776357 -0.0523588274 0.125
    endloop
  endfacet
  facet normal -0.512577552 -0.858640382 -0.000973499063
    outer loop
      vertex -0.0170984884 -0.0501599397 0.25
      vertex -0.0208739046 -0.0476227095 0
      vertex -0.0131776357 -0.0523588274 0.125
    endloop
  endfacet
  facet normal -0.256664862 -0.966318823 -0.0187371417
    outer loop
      vertex -0.00423636284 -0.0523099489 0
      vertex -0.0110258499 -0.0529303652 0.125
      vertex -0.0131776357 -0.0523588274 0.125
    endloop
  endfacet
  facet normal -0.271117745 -0.96234315 -0.0197694045
    outer loop
      vertex -0.0131776357 -0.0523588274 0.125
      vertex -0.0208739046 -0.0476227095 0
      vertex -0.00423636284 -0.0523099489 0
    endloop
  endfacet
  facet normal -0.557783859 -0.829986245 0
    outer loop
      vertex -0.0208739046 -0.0476227095 0
      vertex -0.0170984884 -0.0501599397 0.25
      vertex -0.0208739046 -0.0476227095 0.02
    endloop
  endfacet
  facet normal -0.557783859 -0.829986245 0
    outer loop
      vertex -0.0208739046 -0.0476227095 0.02
      vertex -0.0170984884 -0.0501599397 0.25
      vertex -0.0208739046 -0.0476227095 0.04
    endloop
  endfacet
  facet normal -0.557783859 -0.829986245 0
    outer loop
      vertex -0.0208739046 -0.0476227095 0.04
      vertex -0.0170984884 -0.0501599397 0.25
      vertex -0.0208739046 -0.0476227095 0.06
    endloop
  endfacet
  facet normal -0.557783859 -0.829986245 0
    outer loop
      vertex -0.0208739046 -0.0476227095 0.06
      vertex -0.0170984884 -0.0501599397 0.25
      vertex -0.0208739046 -0.0476227095 0.08
    endloop
  endfacet
  facet normal -0.557783859 -0.829986245 -1.11726864E-16
    outer loop
      vertex -0.0208739046 -0.0476227095 0.08
      vertex -0.0170984884 -0.0501599397 0.25
      vertex -0.0208739046 -0.0476227095 0.1
    endloop
  endfacet
  facet normal -0.557783859 -0.829986245 1.11726864E-16
    outer loop
      vertex -0.0208739046 -0.0476227095 0.1
      vertex -0.0170984884 -0.0501599397 0.25
      vertex -0.0208739046 -0.0476227095 0.12
    endloop
  endfacet
  facet normal -0.557783859 -0.829986245 -2.79317161E-16
    outer loop
      vertex -0.0208739046 -0.0476227095 0.12
      vertex -0.0170984884 -0.0501599397 0.25
      vertex -0.0208739046 -0.0476227095 0.14
    endloop
  endfacet
  facet normal -0.557783859 -0.829986245 5.77255465E-16
    outer loop
      vertex -0.0208739046 -0.0476227095 0.14
      vertex -0.0170984884 -0.0501599397 0.25
      vertex -0.0208739046 -0.0476227095 0.16
    endloop
  endfacet
  facet normal -0.557783859 -0.829986245 0
    outer loop
      vertex -0.0208739046 -0.0476227095 0.16
      vertex -0.0170984884 -0.0501599397 0.25
      vertex -0.0208739046 -0.0476227095 0.18
    endloop
  endfacet
  facet normal -0.557783859 -0.829986245 -2.97938305E-16
    outer loop
      vertex -0.0208739046 -0.0476227095 0.18
      vertex -0.0170984884 -0.0501599397 0.25
      vertex -0.0208739046 -0.0476227095 0.2
    endloop
  endfacet
  facet normal -0.557783859 -0.829986245 0
    outer loop
      vertex -0.0208739046 -0.0476227095 0.2
      vertex -0.0170984884 -0.0501599397 0.25
      vertex -0.0208739046 -0.0476227095 0.22
    endloop
  endfacet
  facet normal -0.557783859 -0.829986245 0
    outer loop
      vertex -0.0208739046 -0.0476227095 0.22
      vertex -0.0170984884 -0.0501599397 0.25
      vertex -0.0208739046 -0.0476227095 0.24
    endloop
  endfacet
  facet normal -0.0547018329 -0.998502734 -5.39097554E-17
    outer loop
      vertex -0.00879742813 -0.0530524468 0.25
      vertex -0.00879742813 -0.0530524468 0.375
      vertex -0.0110258499 -0.0529303652 0.375
    endloop
  endfacet
  facet normal -0.0547018329 -0.998502734 5.39097554E-17
    outer loop
      vertex -0.00879742813 -0.0530524468 0.125
      vertex -0.00879742813 -0.0530524468 0.25
      vertex -0.0110258499 -0.0529303652 0.25
    endloop
  endfacet
  facet normal -0.256709929 -0.966488496 7.12513185E-18
    outer loop
      vertex -0.0131776357 -0.0523588274 0.375
      vertex -0.0110258499 -0.0529303652 0.25
      vertex -0.0110258499 -0.0529303652 0.375
    endloop
  endfacet
  facet normal -0.0547018329 -0.998502734 1.51828086E-18
    outer loop
      vertex -0.00879742813 -0.0530524468 0.25
      vertex -0.0110258499 -0.0529303652 0.375
      vertex -0.0110258499 -0.0529303652 0.25
    endloop
  endfacet
  facet normal -0.256709929 -0.966488496 6.07760209E-17
    outer loop
      vertex -0.0131776357 -0.0523588274 0.375
      vertex -0.0131776357 -0.0523588274 0.25
      vertex -0.0110258499 -0.0529303652 0.25
    endloop
  endfacet
  facet normal -0.256709929 -0.966488496 -7.12513185E-18
    outer loop
      vertex -0.0131776357 -0.0523588274 0.25
      vertex -0.0110258499 -0.0529303652 0.125
      vertex -0.0110258499 -0.0529303652 0.25
    endloop
  endfacet
  facet normal -0.0547018329 -0.998502734 -1.51828086E-18
    outer loop
      vertex -0.00879742813 -0.0530524468 0.125
      vertex -0.0110258499 -0.0529303652 0.25
      vertex -0.0110258499 -0.0529303652 0.125
    endloop
  endfacet
  facet normal -0.256709929 -0.966488496 -5.7213455E-17
    outer loop
      vertex -0.0131776357 -0.0523588274 0.25
      vertex -0.0131776357 -0.0523588274 0.125
      vertex -0.0110258499 -0.0529303652 0.125
    endloop
  endfacet
  facet normal 0.966643557 -0.256125424 0
    outer loop
      vertex 0.0243871463 -0.0107607941 0.02
      vertex 0.0197617695 -0.0282174392 0
      vertex 0.0243871463 -0.0107607941 0
    endloop
  endfacet
  facet normal 0.966643557 -0.256125424 0
    outer loop
      vertex 0.0197617695 -0.0282174392 0
      vertex 0.0243871463 -0.0107607941 0.02
      vertex 0.0243871463 -0.0107607941 0.04
    endloop
  endfacet
  facet normal -0.557783859 -0.829986245 0
    outer loop
      vertex -0.0170984884 -0.0501599397 0.25
      vertex -0.0208739046 -0.0476227095 0.28
      vertex -0.0208739046 -0.0476227095 0.26
    endloop
  endfacet
  facet normal -0.557783859 -0.829986245 0
    outer loop
      vertex -0.0208739046 -0.0476227095 0.24
      vertex -0.0170984884 -0.0501599397 0.25
      vertex -0.0208739046 -0.0476227095 0.26
    endloop
  endfacet
  facet normal 0.966643557 -0.256125424 0
    outer loop
      vertex 0.0243871463 -0.0107607941 0.5
      vertex 0.0197617695 -0.0282174392 0.5
      vertex 0.0243871463 -0.0107607941 0.48
    endloop
  endfacet
  facet normal -0.999983116 0.0058109289 0
    outer loop
      vertex 0.00525648754 0.00782957532 0.5
      vertex 0.00525648754 0.00782957532 0.48
      vertex 0.00524497736 0.00584882735 0.375
    endloop
  endfacet
  facet normal -0.999983116 0.0058109289 0
    outer loop
      vertex 0.00525648754 0.00782957532 0.48
      vertex 0.00525648754 0.00782957532 0.46
      vertex 0.00524497736 0.00584882735 0.375
    endloop
  endfacet
  facet normal -0.999983116 0.0058109289 0
    outer loop
      vertex 0.00525648754 0.00782957532 0.46
      vertex 0.00525648754 0.00782957532 0.44
      vertex 0.00524497736 0.00584882735 0.375
    endloop
  endfacet
  facet normal -0.999983116 0.0058109289 0
    outer loop
      vertex 0.00525648754 0.00782957532 0.44
      vertex 0.00525648754 0.00782957532 0.42
      vertex 0.00524497736 0.00584882735 0.375
    endloop
  endfacet
  facet normal -0.999983116 0.0058109289 0
    outer loop
      vertex 0.00525648754 0.00782957532 0.42
      vertex 0.00525648754 0.00782957532 0.4
      vertex 0.00524497736 0.00584882735 0.375
    endloop
  endfacet
  facet normal -0.99931621 -0.0369682801 0.000677817242
    outer loop
      vertex 0.00524497736 0.00584882735 0.375
      vertex 0.00531870626 0.0038558084 0.375
      vertex 0.00525648754 0.00782957532 0.5
    endloop
  endfacet
  facet normal -0.778858832 0.626870147 -0.0203159636
    outer loop
      vertex 0.00531870626 0.0038558084 0.375
      vertex -0.00775865274 -0.00834116913 0.5
      vertex 0.00525648754 0.00782957532 0.5
    endloop
  endfacet
  facet normal -0.99889545 -0.0469880898 0
    outer loop
      vertex -0.0208739046 -0.0476227095 0.26
      vertex -0.0208739046 -0.0476227095 0.28
      vertex -0.0212554836 -0.0395109197 0.25
    endloop
  endfacet
  facet normal -0.99889545 -0.0469880898 0
    outer loop
      vertex -0.0208739046 -0.0476227095 0.28
      vertex -0.0208739046 -0.0476227095 0.3
      vertex -0.0212554836 -0.0395109197 0.25
    endloop
  endfacet
  facet normal -0.99889545 -0.0469880898 0
    outer loop
      vertex -0.0208739046 -0.0476227095 0.3
      vertex -0.0208739046 -0.0476227095 0.32
      vertex -0.0212554836 -0.0395109197 0.25
    endloop
  endfacet
  facet normal -0.99889545 -0.0469880898 0
    outer loop
      vertex -0.0208739046 -0.0476227095 0.32
      vertex -0.0208739046 -0.0476227095 0.34
      vertex -0.0212554836 -0.0395109197 0.25
    endloop
  endfacet
  facet normal -0.99889545 -0.0469880898 0
    outer loop
      vertex -0.0208739046 -0.0476227095 0.34
      vertex -0.0208739046 -0.0476227095 0.36
      vertex -0.0212554836 -0.0395109197 0.25
    endloop
  endfacet
  facet normal -0.99889545 -0.0469880898 0
    outer loop
      vertex -0.0208739046 -0.0476227095 0.36
      vertex -0.0208739046 -0.0476227095 0.38
      vertex -0.0212554836 -0.0395109197 0.25
    endloop
  endfacet
  facet normal -0.99889545 -0.0469880898 0
    outer loop
      vertex -0.0208739046 -0.0476227095 0.38
      vertex -0.0208739046 -0.0476227095 0.4
      vertex -0.0212554836 -0.0395109197 0.25
    endloop
  endfacet
  facet normal -0.99889545 -0.0469880898 0
    outer loop
      vertex -0.0208739046 -0.0476227095 0.4
      vertex -0.0208739046 -0.0476227095 0.42
      vertex -0.0212554836 -0.0395109197 0.25
    endloop
  endfacet
  facet normal -0.99889545 -0.0469880898 0
    outer loop
      vertex -0.0208739046 -0.0476227095 0.42
      vertex -0.0208739046 -0.0476227095 0.44
      vertex -0.0212554836 -0.0395109197 0.25
    endloop
  endfacet
  facet normal -0.99889545 -0.0469880898 0
    outer loop
      vertex -0.0208739046 -0.0476227095 0.44
      vertex -0.0208739046 -0.0476227095 0.46
      vertex -0.0212554836 -0.0395109197 0.25
    endloop
  endfacet
  facet normal -0.99889545 -0.0469880898 0
    outer loop
      vertex -0.0208739046 -0.0476227095 0.46
      vertex -0.0208739046 -0.0476227095 0.48
      vertex -0.0212554836 -0.0395109197 0.25
    endloop
  endfacet
  facet normal -0.99889545 -0.0469880898 -0
    outer loop
      vertex -0.0212554836 -0.0395109197 0.25
      vertex -0.0208739046 -0.0476227095 0.48
      vertex -0.0208739046 -0.0476227095 0.5
    endloop
  endfacet
  facet normal -0.978354729 0.206925592 0.00195537765
    outer loop
      vertex -0.0202384685 -0.0315584719 0.25
      vertex -0.0210705515 -0.035492603 0.25
      vertex -0.0186833644 -0.0265682772 0.5
    endloop
  endfacet
  facet normal -0.994614454 0.103481441 0.00580331491
    outer loop
      vertex -0.0186833644 -0.0265682772 0.5
      vertex -0.0210705515 -0.035492603 0.25
      vertex -0.0208739046 -0.0476227095 0.5
    endloop
  endfacet
  facet normal -0.99893811 0.0459734094 0.00301640167
    outer loop
      vertex -0.0208739046 -0.0476227095 0.5
      vertex -0.0210705515 -0.035492603 0.25
      vertex -0.0212554836 -0.0395109197 0.25
    endloop
  endfacet
  facet normal -0.999983116 0.0058109289 0
    outer loop
      vertex 0.00525648754 0.00782957532 0.12
      vertex 0.00525648754 0.00782957532 0.1
      vertex 0.00524497736 0.00584882735 0.125
    endloop
  endfacet
  facet normal -0.999983116 0.0058109289 0
    outer loop
      vertex 0.00525648754 0.00782957532 0.1
      vertex 0.00525648754 0.00782957532 0.08
      vertex 0.00524497736 0.00584882735 0.125
    endloop
  endfacet
  facet normal -0.999983116 0.0058109289 0
    outer loop
      vertex 0.00525648754 0.00782957532 0.08
      vertex 0.00525648754 0.00782957532 0.06
      vertex 0.00524497736 0.00584882735 0.125
    endloop
  endfacet
  facet normal -0.999983116 0.0058109289 0
    outer loop
      vertex 0.00525648754 0.00782957532 0.06
      vertex 0.00525648754 0.00782957532 0.04
      vertex 0.00524497736 0.00584882735 0.125
    endloop
  endfacet
  facet normal -0.999983116 0.0058109289 0
    outer loop
      vertex 0.00525648754 0.00782957532 0.04
      vertex 0.00525648754 0.00782957532 0.02
      vertex 0.00524497736 0.00584882735 0.125
    endloop
  endfacet
  facet normal -0.999983116 0.0058109289 0
    outer loop
      vertex 0.00524497736 0.00584882735 0.125
      vertex 0.00525648754 0.00782957532 0.02
      vertex 0.00525648754 0.00782957532 0
    endloop
  endfacet
  facet normal -0.778858832 0.626870147 0.0203159636
    outer loop
      vertex -0.00775865274 -0.00834116913 0
      vertex 0.00531870626 0.0038558084 0.125
      vertex 0.00525648754 0.00782957532 0
    endloop
  endfacet
  facet normal -0.99931621 -0.0369682801 -0.000677817242
    outer loop
      vertex 0.00525648754 0.00782957532 0
      vertex 0.00531870626 0.0038558084 0.125
      vertex 0.00524497736 0.00584882735 0.125
    endloop
  endfacet
  facet normal -0.690536363 0.723295758 -0.00166695845
    outer loop
      vertex 0.00531870626 0.0038558084 0.375
      vertex 0.00256054876 0.000934489107 0.25
      vertex -0.00775865274 -0.00834116913 0.5
    endloop
  endfacet
  facet normal -0.581494716 0.813526694 0.00618173773
    outer loop
      vertex -0.00775865274 -0.00834116913 0.5
      vertex 0.00256054876 0.000934489107 0.25
      vertex 0.00531870626 0.0038558084 0.125
    endloop
  endfacet
  facet normal -0.682062456 0.731293926 -6.06292497E-18
    outer loop
      vertex -0.00775865274 -0.00834116913 0.5
      vertex 0.00531870626 0.0038558084 0.125
      vertex -0.00775865274 -0.00834116913 0
    endloop
  endfacet
  facet normal -0.857732687 0.514095942 0
    outer loop
      vertex -0.0186833644 -0.0265682772 0
      vertex -0.0186833644 -0.0265682772 0.5
      vertex -0.00775865274 -0.00834116913 0
    endloop
  endfacet
  facet normal -0.857732687 0.514095942 2.55102356E-18
    outer loop
      vertex -0.00775865274 -0.00834116913 0
      vertex -0.0186833644 -0.0265682772 0.5
      vertex -0.00775865274 -0.00834116913 0.5
    endloop
  endfacet
  facet normal -0.727120777 0.68650956 0
    outer loop
      vertex 0.00531870626 0.0038558084 0.25
      vertex 0.00256054876 0.000934489107 0.25
      vertex 0.00531870626 0.0038558084 0.375
    endloop
  endfacet
  facet normal -0.998911503 0.0459721849 -0.00789727171
    outer loop
      vertex -0.0212554836 -0.0395109197 0.25
      vertex -0.0210705515 -0.035492603 0.25
      vertex -0.0186833644 -0.0265682772 0
    endloop
  endfacet
  facet normal -0.99461938 0.103481953 -0.0048757988
    outer loop
      vertex -0.0212554836 -0.0395109197 0.25
      vertex -0.0186833644 -0.0265682772 0
      vertex -0.0208739046 -0.0476227095 0
    endloop
  endfacet
  facet normal -0.978354729 0.206925592 -0.00195537765
    outer loop
      vertex -0.0210705515 -0.035492603 0.25
      vertex -0.0202384685 -0.0315584719 0.25
      vertex -0.0186833644 -0.0265682772 0
    endloop
  endfacet
  facet normal -0.954715623 0.297519881 0
    outer loop
      vertex -0.0186833644 -0.0265682772 0
      vertex -0.0202384685 -0.0315584719 0.25
      vertex -0.0186833644 -0.0265682772 0.5
    endloop
  endfacet
  facet normal -0.727120777 0.68650956 2.3818085E-18
    outer loop
      vertex 0.00531870626 0.0038558084 0.25
      vertex 0.00531870626 0.0038558084 0.125
      vertex 0.00256054876 0.000934489107 0.25
    endloop
  endfacet
  facet normal -0.99889545 -0.0469880898 0
    outer loop
      vertex -0.0208739046 -0.0476227095 0
      vertex -0.0208739046 -0.0476227095 0.02
      vertex -0.0212554836 -0.0395109197 0.25
    endloop
  endfacet
  facet normal -0.99889545 -0.0469880898 0
    outer loop
      vertex -0.0208739046 -0.0476227095 0.02
      vertex -0.0208739046 -0.0476227095 0.04
      vertex -0.0212554836 -0.0395109197 0.25
    endloop
  endfacet
  facet normal -0.99889545 -0.0469880898 0
    outer loop
      vertex -0.0208739046 -0.0476227095 0.04
      vertex -0.0208739046 -0.0476227095 0.06
      vertex -0.0212554836 -0.0395109197 0.25
    endloop
  endfacet
  facet normal -0.99889545 -0.0469880898 0
    outer loop
      vertex -0.0208739046 -0.0476227095 0.06
      vertex -0.0208739046 -0.0476227095 0.08
      vertex -0.0212554836 -0.0395109197 0.25
    endloop
  endfacet
  facet normal -0.99889545 -0.0469880898 -1.73280739E-16
    outer loop
      vertex -0.0208739046 -0.0476227095 0.08
      vertex -0.0208739046 -0.0476227095 0.1
      vertex -0.0212554836 -0.0395109197 0.25
    endloop
  endfacet
  facet normal -0.99889545 -0.0469880898 1.73280739E-16
    outer loop
      vertex -0.0208739046 -0.0476227095 0.1
      vertex -0.0208739046 -0.0476227095 0.12
      vertex -0.0212554836 -0.0395109197 0.25
    endloop
  endfacet
  facet normal -0.99889545 -0.0469880898 -1.63022685E-17
    outer loop
      vertex -0.0208739046 -0.0476227095 0.12
      vertex -0.0208739046 -0.0476227095 0.14
      vertex -0.0212554836 -0.0395109197 0.25
    endloop
  endfacet
  facet normal -0.99889545 -0.0469880898 3.2604537E-17
    outer loop
      vertex -0.0208739046 -0.0476227095 0.14
      vertex -0.0208739046 -0.0476227095 0.16
      vertex -0.0212554836 -0.0395109197 0.25
    endloop
  endfacet
  facet normal -0.99889545 -0.0469880898 0
    outer loop
      vertex -0.0208739046 -0.0476227095 0.16
      vertex -0.0208739046 -0.0476227095 0.18
      vertex -0.0212554836 -0.0395109197 0.25
    endloop
  endfacet
  facet normal -0.99889545 -0.0469880898 -1.63022685E-17
    outer loop
      vertex -0.0208739046 -0.0476227095 0.18
      vertex -0.0208739046 -0.0476227095 0.2
      vertex -0.0212554836 -0.0395109197 0.25
    endloop
  endfacet
  facet normal -0.99889545 -0.0469880898 0
    outer loop
      vertex -0.0208739046 -0.0476227095 0.2
      vertex -0.0208739046 -0.0476227095 0.22
      vertex -0.0212554836 -0.0395109197 0.25
    endloop
  endfacet
  facet normal -0.99889545 -0.0469880898 0
    outer loop
      vertex -0.0208739046 -0.0476227095 0.22
      vertex -0.0208739046 -0.0476227095 0.24
      vertex -0.0212554836 -0.0395109197 0.25
    endloop
  endfacet
  facet normal -0.999983116 0.0058109289 0
    outer loop
      vertex 0.00525648754 0.00782957532 0.36
      vertex 0.00525648754 0.00782957532 0.34
      vertex 0.00524497736 0.00584882735 0.375
    endloop
  endfacet
  facet normal -0.999983116 0.0058109289 0
    outer loop
      vertex 0.00525648754 0.00782957532 0.34
      vertex 0.00525648754 0.00782957532 0.32
      vertex 0.00524497736 0.00584882735 0.375
    endloop
  endfacet
  facet normal -0.999983116 0.0058109289 0
    outer loop
      vertex 0.00524497736 0.00584882735 0.375
      vertex 0.00525648754 0.00782957532 0.32
      vertex 0.00525648754 0.00782957532 0.3
    endloop
  endfacet
  facet normal -0.999983116 0.0058109289 0
    outer loop
      vertex 0.00524497736 0.00584882735 0.375
      vertex 0.00525648754 0.00782957532 0.3
      vertex 0.00525648754 0.00782957532 0.28
    endloop
  endfacet
  facet normal -0.999983116 0.0058109289 0
    outer loop
      vertex 0.00524497736 0.00584882735 0.375
      vertex 0.00525648754 0.00782957532 0.28
      vertex 0.00525648754 0.00782957532 0.26
    endloop
  endfacet
  facet normal -0.999316439 -0.0369682886 1.28259516E-19
    outer loop
      vertex 0.00524497736 0.00584882735 0.25
      vertex 0.00531870626 0.0038558084 0.25
      vertex 0.00531870626 0.0038558084 0.375
    endloop
  endfacet
  facet normal -0.999316439 -0.0369682886 0
    outer loop
      vertex 0.00524497736 0.00584882735 0.25
      vertex 0.00531870626 0.0038558084 0.375
      vertex 0.00524497736 0.00584882735 0.375
    endloop
  endfacet
  facet normal -0.999983116 0.0058109289 0
    outer loop
      vertex 0.00525648754 0.00782957532 0.24
      vertex 0.00525648754 0.00782957532 0.22
      vertex 0.00524497736 0.00584882735 0.25
    endloop
  endfacet
  facet normal -0.999983116 0.0058109289 0
    outer loop
      vertex 0.00525648754 0.00782957532 0.22
      vertex 0.00525648754 0.00782957532 0.2
      vertex 0.00524497736 0.00584882735 0.25
    endloop
  endfacet
  facet normal -0.999983116 0.0058109289 0
    outer loop
      vertex 0.00525648754 0.00782957532 0.2
      vertex 0.00525648754 0.00782957532 0.18
      vertex 0.00524497736 0.00584882735 0.25
    endloop
  endfacet
  facet normal -0.999983116 0.0058109289 0
    outer loop
      vertex 0.00524497736 0.00584882735 0.25
      vertex 0.00525648754 0.00782957532 0.18
      vertex 0.00525648754 0.00782957532 0.16
    endloop
  endfacet
  facet normal -0.999983116 0.0058109289 0
    outer loop
      vertex 0.00524497736 0.00584882735 0.25
      vertex 0.00525648754 0.00782957532 0.16
      vertex 0.00525648754 0.00782957532 0.14
    endloop
  endfacet
  facet normal -0.999316439 -0.0369682886 -1.28259516E-19
    outer loop
      vertex 0.00524497736 0.00584882735 0.125
      vertex 0.00531870626 0.0038558084 0.125
      vertex 0.00531870626 0.0038558084 0.25
    endloop
  endfacet
  facet normal -0.999316439 -0.0369682886 6.90152831E-18
    outer loop
      vertex 0.00524497736 0.00584882735 0.125
      vertex 0.00531870626 0.0038558084 0.25
      vertex 0.00524497736 0.00584882735 0.25
    endloop
  endfacet
  facet normal -0.999983116 0.0058109289 6.94891687E-18
    outer loop
      vertex 0.00524497736 0.00584882735 0.25
      vertex 0.00525648754 0.00782957532 0.14
      vertex 0.00524497736 0.00584882735 0.125
    endloop
  endfacet
  facet normal -0.999983116 0.0058109289 0
    outer loop
      vertex 0.00525648754 0.00782957532 0.12
      vertex 0.00524497736 0.00584882735 0.125
      vertex 0.00525648754 0.00782957532 0.14
    endloop
  endfacet
  facet normal -0.99889545 -0.0469880898 -0
    outer loop
      vertex -0.0212554836 -0.0395109197 0.25
      vertex -0.0208739046 -0.0476227095 0.24
      vertex -0.0208739046 -0.0476227095 0.26
    endloop
  endfacet
  facet normal -0.999983116 0.0058109289 0
    outer loop
      vertex 0.00524497736 0.00584882735 0.375
      vertex 0.00525648754 0.00782957532 0.4
      vertex 0.00525648754 0.00782957532 0.38
    endloop
  endfacet
  facet normal -0.999983116 0.0058109289 0
    outer loop
      vertex 0.00525648754 0.00782957532 0.36
      vertex 0.00524497736 0.00584882735 0.375
      vertex 0.00525648754 0.00782957532 0.38
    endloop
  endfacet
  facet normal -0.999983116 0.0058109289 0
    outer loop
      vertex 0.00524497736 0.00584882735 0.375
      vertex 0.00525648754 0.00782957532 0.26
      vertex 0.00524497736 0.00584882735 0.25
    endloop
  endfacet
  facet normal -0.999983116 0.0058109289 0
    outer loop
      vertex 0.00525648754 0.00782957532 0.24
      vertex 0.00524497736 0.00584882735 0.25
      vertex 0.00525648754 0.00782957532 0.26
    endloop
  endfacet
  facet normal 0.696907201 0.717161316 0
    outer loop
      vertex 0.00525648754 0.00782957532 0.32
      vertex 0.0243871463 -0.0107607941 0.3
      vertex 0.00525648754 0.00782957532 0.3
    endloop
  endfacet
  facet normal 0.696907201 0.717161316 -0
    outer loop
      vertex 0.00525648754 0.00782957532 0.3
      vertex 0.0243871463 -0.0107607941 0.3
      vertex 0.0243871463 -0.0107607941 0.28
    endloop
  endfacet
  facet normal 0.696907201 0.717161316 -0
    outer loop
      vertex 0.00525648754 0.00782957532 0.36
      vertex 0.0243871463 -0.0107607941 0.36
      vertex 0.0243871463 -0.0107607941 0.34
    endloop
  endfacet
  facet normal 0.696907201 0.717161316 0
    outer loop
      vertex 0.00525648754 0.00782957532 0.38
      vertex 0.0243871463 -0.0107607941 0.36
      vertex 0.00525648754 0.00782957532 0.36
    endloop
  endfacet
  facet normal 0.696907201 0.717161316 0
    outer loop
      vertex 0.0243871463 -0.0107607941 0.32
      vertex 0.00525648754 0.00782957532 0.32
      vertex 0.00525648754 0.00782957532 0.34
    endloop
  endfacet
  facet normal 0.696907201 0.717161316 0
    outer loop
      vertex 0.0243871463 -0.0107607941 0.34
      vertex 0.0243871463 -0.0107607941 0.32
      vertex 0.00525648754 0.00782957532 0.34
    endloop
  endfacet
  facet normal 0.696907201 0.717161316 0
    outer loop
      vertex 0.00525648754 0.00782957532 0.36
      vertex 0.0243871463 -0.0107607941 0.34
      vertex 0.00525648754 0.00782957532 0.34
    endloop
  endfacet
  facet normal 0.696907201 0.717161316 1.24407657E-16
    outer loop
      vertex 0.00525648754 0.00782957532 0.4
      vertex 0.0243871463 -0.0107607941 0.4
      vertex 0.0243871463 -0.0107607941 0.38
    endloop
  endfacet
  facet normal 0.696907201 0.717161316 0
    outer loop
      vertex 0.00525648754 0.00782957532 0.4
      vertex 0.0243871463 -0.0107607941 0.38
      vertex 0.00525648754 0.00782957532 0.38
    endloop
  endfacet
  facet normal 0.696907201 0.717161316 -6.22038286E-17
    outer loop
      vertex 0.0243871463 -0.0107607941 0.38
      vertex 0.0243871463 -0.0107607941 0.36
      vertex 0.00525648754 0.00782957532 0.38
    endloop
  endfacet
  facet normal 0.696907201 0.717161316 0
    outer loop
      vertex 0.0243871463 -0.0107607941 0.32
      vertex 0.0243871463 -0.0107607941 0.3
      vertex 0.00525648754 0.00782957532 0.32
    endloop
  endfacet
  facet normal 0.696907201 0.717161316 0
    outer loop
      vertex 0.00525648754 0.00782957532 0.42
      vertex 0.0243871463 -0.0107607941 0.4
      vertex 0.00525648754 0.00782957532 0.4
    endloop
  endfacet
  facet normal 0.696907201 0.717161316 0
    outer loop
      vertex 0.0243871463 -0.0107607941 0.26
      vertex 0.00525648754 0.00782957532 0.26
      vertex 0.00525648754 0.00782957532 0.28
    endloop
  endfacet
  facet normal 0.696907201 0.717161316 0
    outer loop
      vertex 0.0243871463 -0.0107607941 0.28
      vertex 0.0243871463 -0.0107607941 0.26
      vertex 0.00525648754 0.00782957532 0.28
    endloop
  endfacet
  facet normal 0.696907201 0.717161316 0
    outer loop
      vertex 0.00525648754 0.00782957532 0.3
      vertex 0.0243871463 -0.0107607941 0.28
      vertex 0.00525648754 0.00782957532 0.28
    endloop
  endfacet
  facet normal 0.696907201 0.717161316 0
    outer loop
      vertex 0.0243871463 -0.0107607941 0.48
      vertex 0.00525648754 0.00782957532 0.5
      vertex 0.0243871463 -0.0107607941 0.5
    endloop
  endfacet
  facet normal 0.696907201 0.717161316 -0
    outer loop
      vertex 0.00525648754 0.00782957532 0.48
      vertex 0.00525648754 0.00782957532 0.5
      vertex 0.0243871463 -0.0107607941 0.48
    endloop
  endfacet
  facet normal 0.696907201 0.717161316 0
    outer loop
      vertex 0.0243871463 -0.0107607941 0.46
      vertex 0.00525648754 0.00782957532 0.48
      vertex 0.0243871463 -0.0107607941 0.48
    endloop
  endfacet
  facet normal 0.696907201 0.717161316 -0
    outer loop
      vertex 0.00525648754 0.00782957532 0.46
      vertex 0.0243871463 -0.0107607941 0.46
      vertex 0.0243871463 -0.0107607941 0.44
    endloop
  endfacet
  facet normal 0.696907201 0.717161316 0
    outer loop
      vertex 0.00525648754 0.00782957532 0.46
      vertex 0.0243871463 -0.0107607941 0.44
      vertex 0.00525648754 0.00782957532 0.44
    endloop
  endfacet
  facet normal 0.696907201 0.717161316 0
    outer loop
      vertex 0.0243871463 -0.0107607941 0.44
      vertex 0.0243871463 -0.0107607941 0.42
      vertex 0.00525648754 0.00782957532 0.44
    endloop
  endfacet
  facet normal 0.696907201 0.717161316 0
    outer loop
      vertex 0.0243871463 -0.0107607941 0.42
      vertex 0.00525648754 0.00782957532 0.42
      vertex 0.00525648754 0.00782957532 0.44
    endloop
  endfacet
  facet normal 0.696907201 0.717161316 0
    outer loop
      vertex 0.00525648754 0.00782957532 0.48
      vertex 0.0243871463 -0.0107607941 0.46
      vertex 0.00525648754 0.00782957532 0.46
    endloop
  endfacet
  facet normal 0.696907201 0.717161316 0
    outer loop
      vertex 0.0243871463 -0.0107607941 0.4
      vertex 0.00525648754 0.00782957532 0.42
      vertex 0.0243871463 -0.0107607941 0.42
    endloop
  endfacet
  facet normal 0.696907201 0.717161316 0
    outer loop
      vertex 0.0243871463 -0.0107607941 0.24
      vertex 0.00525648754 0.00782957532 0.26
      vertex 0.0243871463 -0.0107607941 0.26
    endloop
  endfacet
  facet normal 0.696907201 0.717161316 0
    outer loop
      vertex 0.0243871463 -0.0107607941 0.24
      vertex 0.00525648754 0.00782957532 0.24
      vertex 0.00525648754 0.00782957532 0.26
    endloop
  endfacet
  facet normal 0.696907201 0.717161316 0
    outer loop
      vertex 0.0243871463 -0.0107607941 0.22
      vertex 0.00525648754 0.00782957532 0.24
      vertex 0.0243871463 -0.0107607941 0.24
    endloop
  endfacet
  facet normal 0.696907201 0.717161316 0
    outer loop
      vertex 0.0243871463 -0.0107607941 0.22
      vertex 0.00525648754 0.00782957532 0.22
      vertex 0.00525648754 0.00782957532 0.24
    endloop
  endfacet
  facet normal 0.696907201 0.717161316 0
    outer loop
      vertex 0.0243871463 -0.0107607941 0.2
      vertex 0.00525648754 0.00782957532 0.22
      vertex 0.0243871463 -0.0107607941 0.22
    endloop
  endfacet
  facet normal 0.696907201 0.717161316 0
    outer loop
      vertex 0.0243871463 -0.0107607941 0.2
      vertex 0.00525648754 0.00782957532 0.2
      vertex 0.00525648754 0.00782957532 0.22
    endloop
  endfacet
  facet normal 0.696907201 0.717161316 0
    outer loop
      vertex 0.0243871463 -0.0107607941 0.18
      vertex 0.00525648754 0.00782957532 0.2
      vertex 0.0243871463 -0.0107607941 0.2
    endloop
  endfacet
  facet normal 0.696907201 0.717161316 0
    outer loop
      vertex 0.0243871463 -0.0107607941 0.18
      vertex 0.00525648754 0.00782957532 0.18
      vertex 0.00525648754 0.00782957532 0.2
    endloop
  endfacet
  facet normal 0.696907201 0.717161316 0
    outer loop
      vertex 0.0243871463 -0.0107607941 0.16
      vertex 0.00525648754 0.00782957532 0.18
      vertex 0.0243871463 -0.0107607941 0.18
    endloop
  endfacet
  facet normal 0.696907201 0.717161316 0
    outer loop
      vertex 0.0243871463 -0.0107607941 0.16
      vertex 0.00525648754 0.00782957532 0.16
      vertex 0.00525648754 0.00782957532 0.18
    endloop
  endfacet
  facet normal 0.696907201 0.717161316 0
    outer loop
      vertex 0.0243871463 -0.0107607941 0.14
      vertex 0.00525648754 0.00782957532 0.16
      vertex 0.0243871463 -0.0107607941 0.16
    endloop
  endfacet
  facet normal 0.696907201 0.717161316 0
    outer loop
      vertex 0.0243871463 -0.0107607941 0.14
      vertex 0.00525648754 0.00782957532 0.14
      vertex 0.00525648754 0.00782957532 0.16
    endloop
  endfacet
  facet normal 0.696907201 0.717161316 0
    outer loop
      vertex 0.0243871463 -0.0107607941 0.12
      vertex 0.00525648754 0.00782957532 0.14
      vertex 0.0243871463 -0.0107607941 0.14
    endloop
  endfacet
  facet normal 0.696907201 0.717161316 0
    outer loop
      vertex 0.0243871463 -0.0107607941 0.12
      vertex 0.00525648754 0.00782957532 0.12
      vertex 0.00525648754 0.00782957532 0.14
    endloop
  endfacet
  facet normal 0.696907201 0.717161316 0
    outer loop
      vertex 0.0243871463 -0.0107607941 0.1
      vertex 0.00525648754 0.00782957532 0.12
      vertex 0.0243871463 -0.0107607941 0.12
    endloop
  endfacet
  facet normal 0.696907201 0.717161316 0
    outer loop
      vertex 0.0243871463 -0.0107607941 0.1
      vertex 0.00525648754 0.00782957532 0.1
      vertex 0.00525648754 0.00782957532 0.12
    endloop
  endfacet
  facet normal 0.696907201 0.717161316 0
    outer loop
      vertex 0.0243871463 -0.0107607941 0.08
      vertex 0.00525648754 0.00782957532 0.1
      vertex 0.0243871463 -0.0107607941 0.1
    endloop
  endfacet
  facet normal 0.696907201 0.717161316 0
    outer loop
      vertex 0.0243871463 -0.0107607941 0.08
      vertex 0.00525648754 0.00782957532 0.08
      vertex 0.00525648754 0.00782957532 0.1
    endloop
  endfacet
  facet normal 0.696907201 0.717161316 0
    outer loop
      vertex 0.0243871463 -0.0107607941 0.06
      vertex 0.00525648754 0.00782957532 0.08
      vertex 0.0243871463 -0.0107607941 0.08
    endloop
  endfacet
  facet normal 0.696907201 0.717161316 0
    outer loop
      vertex 0.0243871463 -0.0107607941 0.06
      vertex 0.00525648754 0.00782957532 0.06
      vertex 0.00525648754 0.00782957532 0.08
    endloop
  endfacet
  facet normal 0.696907201 0.717161316 0
    outer loop
      vertex 0.0243871463 -0.0107607941 0.04
      vertex 0.00525648754 0.00782957532 0.06
      vertex 0.0243871463 -0.0107607941 0.06
    endloop
  endfacet
  facet normal 0.696907201 0.717161316 0
    outer loop
      vertex 0.0243871463 -0.0107607941 0.04
      vertex 0.00525648754 0.00782957532 0.04
      vertex 0.00525648754 0.00782957532 0.06
    endloop
  endfacet
  facet normal 0.696907201 0.717161316 0
    outer loop
      vertex 0.0243871463 -0.0107607941 0.02
      vertex 0.00525648754 0.00782957532 0.04
      vertex 0.0243871463 -0.0107607941 0.04
    endloop
  endfacet
  facet normal 0.696907201 0.717161316 0
    outer loop
      vertex 0.0243871463 -0.0107607941 0.02
      vertex 0.00525648754 0.00782957532 0.02
      vertex 0.00525648754 0.00782957532 0.04
    endloop
  endfacet
  facet normal 0.696907201 0.717161316 0
    outer loop
      vertex 0.0243871463 -0.0107607941 0
      vertex 0.00525648754 0.00782957532 0.02
      vertex 0.0243871463 -0.0107607941 0.02
    endloop
  endfacet
  facet normal 0.696907201 0.717161316 0
    outer loop
      vertex 0.0243871463 -0.0107607941 0
      vertex 0.00525648754 0.00782957532 0
      vertex 0.00525648754 0.00782957532 0.02
    endloop
  endfacet
endsolid Default PSHELL Property
solid Default PSHELL Property
   color       0.58824 0.63137 0.14118
  facet normal -1.87184471E-15 -1.92624587E-15 -1
    outer loop
      vertex 0.0243871463 -0.0107607941 -0.5
      vertex -0.00775865274 -0.00834116913 -0.5
      vertex 0.00525648754 0.00782957532 -0.5
    endloop
  endfacet
  facet normal 0 0 -1
    outer loop
      vertex -0.0186833644 -0.0265682772 -0.5
      vertex 0.0117500107 -0.0441950878 -0.5
      vertex -0.00423636284 -0.0523099489 -0.5
    endloop
  endfacet
  facet normal 3.9631228E-15 2.22422389E-15 -1
    outer loop
      vertex -0.0208739046 -0.0476227095 -0.5
      vertex -0.0186833644 -0.0265682772 -0.5
      vertex -0.00423636284 -0.0523099489 -0.5
    endloop
  endfacet
  facet normal 1.40771249E-15 -8.43735221E-16 -1
    outer loop
      vertex -0.0186833644 -0.0265682772 -0.5
      vertex -0.00775865274 -0.00834116913 -0.5
      vertex 0.0197617695 -0.0282174392 -0.5
    endloop
  endfacet
  facet normal 1.55939875E-15 2.69236268E-15 -1
    outer loop
      vertex 0.0117500107 -0.0441950878 -0.5
      vertex -0.0186833644 -0.0265682772 -0.5
      vertex 0.0197617695 -0.0282174392 -0.5
    endloop
  endfacet
  facet normal -2.16243893E-15 -5.78691994E-15 -1
    outer loop
      vertex -0.00775865274 -0.00834116913 -0.5
      vertex 0.0243871463 -0.0107607941 -0.5
      vertex 0.0197617695 -0.0282174392 -0.5
    endloop
  endfacet
  facet normal 0.893903249 -0.448234746 -0.00475327678
    outer loop
      vertex 0.0197617695 -0.0282174392 -0.5
      vertex 0.016796289 -0.0367825313 -0.25
      vertex 0.0117500107 -0.0441950878 -0.5
    endloop
  endfacet
  facet normal 0.874861226 -0.484362427 -0.00329771749
    outer loop
      vertex 0.016796289 -0.0367825313 -0.25
      vertex 0.0145929032 -0.0407623131 -0.25
      vertex 0.0117500107 -0.0441950878 -0.5
    endloop
  endfacet
  facet normal 0.769011813 -0.639234566 3.25211444E-05
    outer loop
      vertex 0.0145929032 -0.0407623131 -0.25
      vertex 0.0116949128 -0.0442486529 -0.25
      vertex 0.0117500107 -0.0441950878 -0.5
    endloop
  endfacet
  facet normal 0.605209905 -0.796065933 -3.71822045E-05
    outer loop
      vertex 0.0116949128 -0.0442486529 -0.25
      vertex 0.00813067027 -0.0469583717 -0.25
      vertex 0.0117500107 -0.0441950878 -0.5
    endloop
  endfacet
  facet normal 0.481405872 -0.876483237 -0.00505197858
    outer loop
      vertex 0.00813067027 -0.0469583717 -0.25
      vertex 0.0041673522 -0.0491352127 -0.25
      vertex -0.00423636284 -0.0523099489 -0.5
    endloop
  endfacet
  facet normal 0.45263234 -0.891691121 -0.00330306103
    outer loop
      vertex 0.00813067027 -0.0469583717 -0.25
      vertex -0.00423636284 -0.0523099489 -0.5
      vertex 0.0117500107 -0.0441950878 -0.5
    endloop
  endfacet
  facet normal 0.394029013 -0.919096655 -0.00157367225
    outer loop
      vertex 0.0041673522 -0.0491352127 -0.25
      vertex 5.80176141E-06 -0.0509193249 -0.25
      vertex -0.00423636284 -0.0523099489 -0.5
    endloop
  endfacet
  facet normal 0.310776947 -0.950482871 1.35893178E-05
    outer loop
      vertex -0.00423636284 -0.0523099489 -0.5
      vertex 5.80176141E-06 -0.0509193249 -0.25
      vertex -0.00429610632 -0.0523259088 -0.25
    endloop
  endfacet
  facet normal 0.160013799 -0.987114777 -2.47777022E-05
    outer loop
      vertex -0.00429610632 -0.0523259088 -0.25
      vertex -0.00879742813 -0.0530524468 -0.375
      vertex -0.00423636284 -0.0523099489 -0.5
    endloop
  endfacet
  facet normal -0.0547001143 -0.998471363 -0.00792682905
    outer loop
      vertex -0.00879742813 -0.0530524468 -0.375
      vertex -0.0110258499 -0.0529303652 -0.375
      vertex -0.00423636284 -0.0523099489 -0.5
    endloop
  endfacet
  facet normal -0.256654343 -0.96627922 -0.0208090518
    outer loop
      vertex -0.0110258499 -0.0529303652 -0.375
      vertex -0.0131776357 -0.0523588274 -0.375
      vertex -0.0208739046 -0.0476227095 -0.5
    endloop
  endfacet
  facet normal -0.271119166 -0.962348195 -0.0195025327
    outer loop
      vertex -0.0110258499 -0.0529303652 -0.375
      vertex -0.0208739046 -0.0476227095 -0.5
      vertex -0.00423636284 -0.0523099489 -0.5
    endloop
  endfacet
  facet normal -0.512577552 -0.858640382 -0.000973499063
    outer loop
      vertex -0.0208739046 -0.0476227095 -0.5
      vertex -0.0131776357 -0.0523588274 -0.375
      vertex -0.0170984884 -0.0501599397 -0.25
    endloop
  endfacet
  facet normal -0.48914689 -0.872201422 -6.19934585E-17
    outer loop
      vertex -0.0131776357 -0.0523588274 -0.375
      vertex -0.0131776357 -0.0523588274 -0.25
      vertex -0.0170984884 -0.0501599397 -0.25
    endloop
  endfacet
  facet normal -0.557783859 -0.829986245 -0
    outer loop
      vertex -0.0208739046 -0.0476227095 -0.28
      vertex -0.0208739046 -0.0476227095 -0.3
      vertex -0.0170984884 -0.0501599397 -0.25
    endloop
  endfacet
  facet normal -0.557783859 -0.829986245 -0
    outer loop
      vertex -0.0208739046 -0.0476227095 -0.3
      vertex -0.0208739046 -0.0476227095 -0.32
      vertex -0.0170984884 -0.0501599397 -0.25
    endloop
  endfacet
  facet normal -0.557783859 -0.829986245 -0
    outer loop
      vertex -0.0208739046 -0.0476227095 -0.32
      vertex -0.0208739046 -0.0476227095 -0.34
      vertex -0.0170984884 -0.0501599397 -0.25
    endloop
  endfacet
  facet normal -0.557783859 -0.829986245 -0
    outer loop
      vertex -0.0208739046 -0.0476227095 -0.34
      vertex -0.0208739046 -0.0476227095 -0.36
      vertex -0.0170984884 -0.0501599397 -0.25
    endloop
  endfacet
  facet normal -0.557783859 -0.829986245 -0
    outer loop
      vertex -0.0208739046 -0.0476227095 -0.36
      vertex -0.0208739046 -0.0476227095 -0.38
      vertex -0.0170984884 -0.0501599397 -0.25
    endloop
  endfacet
  facet normal -0.557783859 -0.829986245 -0
    outer loop
      vertex -0.0208739046 -0.0476227095 -0.38
      vertex -0.0208739046 -0.0476227095 -0.4
      vertex -0.0170984884 -0.0501599397 -0.25
    endloop
  endfacet
  facet normal -0.557783859 -0.829986245 -0
    outer loop
      vertex -0.0208739046 -0.0476227095 -0.4
      vertex -0.0208739046 -0.0476227095 -0.42
      vertex -0.0170984884 -0.0501599397 -0.25
    endloop
  endfacet
  facet normal -0.557783859 -0.829986245 -0
    outer loop
      vertex -0.0208739046 -0.0476227095 -0.42
      vertex -0.0208739046 -0.0476227095 -0.44
      vertex -0.0170984884 -0.0501599397 -0.25
    endloop
  endfacet
  facet normal -0.557783859 -0.829986245 -0
    outer loop
      vertex -0.0208739046 -0.0476227095 -0.44
      vertex -0.0208739046 -0.0476227095 -0.46
      vertex -0.0170984884 -0.0501599397 -0.25
    endloop
  endfacet
  facet normal -0.557783859 -0.829986245 -0
    outer loop
      vertex -0.0208739046 -0.0476227095 -0.46
      vertex -0.0208739046 -0.0476227095 -0.48
      vertex -0.0170984884 -0.0501599397 -0.25
    endloop
  endfacet
  facet normal -0.557783859 -0.829986245 0
    outer loop
      vertex -0.0170984884 -0.0501599397 -0.25
      vertex -0.0208739046 -0.0476227095 -0.48
      vertex -0.0208739046 -0.0476227095 -0.5
    endloop
  endfacet
  facet normal 0.966643557 -0.256125424 0
    outer loop
      vertex 0.0243871463 -0.0107607941 -0.48
      vertex 0.0243871463 -0.0107607941 -0.46
      vertex 0.0197617695 -0.0282174392 -0.5
    endloop
  endfacet
  facet normal 0.966643557 -0.256125424 0
    outer loop
      vertex 0.0243871463 -0.0107607941 -0.46
      vertex 0.0243871463 -0.0107607941 -0.44
      vertex 0.0197617695 -0.0282174392 -0.5
    endloop
  endfacet
  facet normal 0.966643557 -0.256125424 0
    outer loop
      vertex 0.0243871463 -0.0107607941 -0.44
      vertex 0.0243871463 -0.0107607941 -0.42
      vertex 0.0197617695 -0.0282174392 -0.5
    endloop
  endfacet
  facet normal 0.966643557 -0.256125424 -2.22153393E-17
    outer loop
      vertex 0.0243871463 -0.0107607941 -0.42
      vertex 0.0243871463 -0.0107607941 -0.4
      vertex 0.0197617695 -0.0282174392 -0.5
    endloop
  endfacet
  facet normal 0.966643557 -0.256125424 4.44306786E-17
    outer loop
      vertex 0.0243871463 -0.0107607941 -0.4
      vertex 0.0243871463 -0.0107607941 -0.38
      vertex 0.0197617695 -0.0282174392 -0.5
    endloop
  endfacet
  facet normal 0.966643557 -0.256125424 -2.22153393E-17
    outer loop
      vertex 0.0243871463 -0.0107607941 -0.38
      vertex 0.0243871463 -0.0107607941 -0.36
      vertex 0.0197617695 -0.0282174392 -0.5
    endloop
  endfacet
  facet normal 0.966643557 -0.256125424 0
    outer loop
      vertex 0.0243871463 -0.0107607941 -0.36
      vertex 0.0243871463 -0.0107607941 -0.34
      vertex 0.0197617695 -0.0282174392 -0.5
    endloop
  endfacet
  facet normal 0.966643557 -0.256125424 0
    outer loop
      vertex 0.0243871463 -0.0107607941 -0.34
      vertex 0.0243871463 -0.0107607941 -0.32
      vertex 0.0197617695 -0.0282174392 -0.5
    endloop
  endfacet
  facet normal 0.966643557 -0.256125424 0
    outer loop
      vertex 0.0243871463 -0.0107607941 -0.32
      vertex 0.0243871463 -0.0107607941 -0.3
      vertex 0.0197617695 -0.0282174392 -0.5
    endloop
  endfacet
  facet normal 0.966643557 -0.256125424 0
    outer loop
      vertex 0.0243871463 -0.0107607941 -0.3
      vertex 0.0243871463 -0.0107607941 -0.28
      vertex 0.0197617695 -0.0282174392 -0.5
    endloop
  endfacet
  facet normal 0.966643557 -0.256125424 0
    outer loop
      vertex 0.0243871463 -0.0107607941 -0.28
      vertex 0.0243871463 -0.0107607941 -0.26
      vertex 0.0197617695 -0.0282174392 -0.5
    endloop
  endfacet
  facet normal 0.966643557 -0.256125424 0
    outer loop
      vertex 0.0197617695 -0.0282174392 -0.5
      vertex 0.0243871463 -0.0107607941 -0.26
      vertex 0.0243871463 -0.0107607941 -0.24
    endloop
  endfacet
  facet normal 0.966643557 -0.256125424 0
    outer loop
      vertex 0.0197617695 -0.0282174392 -0.5
      vertex 0.0243871463 -0.0107607941 -0.24
      vertex 0.0243871463 -0.0107607941 -0.22
    endloop
  endfacet
  facet normal 0.966643557 -0.256125424 0
    outer loop
      vertex 0.0197617695 -0.0282174392 -0.5
      vertex 0.0243871463 -0.0107607941 -0.22
      vertex 0.0243871463 -0.0107607941 -0.2
    endloop
  endfacet
  facet normal 0.966643557 -0.256125424 0
    outer loop
      vertex 0.0197617695 -0.0282174392 -0.5
      vertex 0.0243871463 -0.0107607941 -0.2
      vertex 0.0243871463 -0.0107607941 -0.18
    endloop
  endfacet
  facet normal 0.966643557 -0.256125424 0
    outer loop
      vertex 0.0197617695 -0.0282174392 -0.5
      vertex 0.0243871463 -0.0107607941 -0.18
      vertex 0.0243871463 -0.0107607941 -0.16
    endloop
  endfacet
  facet normal 0.966643557 -0.256125424 0
    outer loop
      vertex 0.0197617695 -0.0282174392 -0.5
      vertex 0.0243871463 -0.0107607941 -0.16
      vertex 0.0243871463 -0.0107607941 -0.14
    endloop
  endfacet
  facet normal 0.966643557 -0.256125424 2.22153393E-17
    outer loop
      vertex 0.0197617695 -0.0282174392 -0.5
      vertex 0.0243871463 -0.0107607941 -0.14
      vertex 0.0243871463 -0.0107607941 -0.12
    endloop
  endfacet
  facet normal 0.966643557 -0.256125424 1.50091418E-18
    outer loop
      vertex 0.0197617695 -0.0282174392 -0.5
      vertex 0.0243871463 -0.0107607941 -0.12
      vertex 0.0197617695 -0.0282174392 0
    endloop
  endfacet
  facet normal 0.966643557 -0.256125424 -2.22153393E-17
    outer loop
      vertex 0.0243871463 -0.0107607941 -0.12
      vertex 0.0243871463 -0.0107607941 -0.1
      vertex 0.0197617695 -0.0282174392 0
    endloop
  endfacet
  facet normal 0.966643557 -0.256125424 0
    outer loop
      vertex 0.0243871463 -0.0107607941 -0.1
      vertex 0.0243871463 -0.0107607941 -0.08
      vertex 0.0197617695 -0.0282174392 0
    endloop
  endfacet
  facet normal 0.966643557 -0.256125424 0
    outer loop
      vertex 0.0243871463 -0.0107607941 -0.08
      vertex 0.0243871463 -0.0107607941 -0.06
      vertex 0.0197617695 -0.0282174392 0
    endloop
  endfacet
  facet normal 0.966643557 -0.256125424 0
    outer loop
      vertex 0.0243871463 -0.0107607941 -0.06
      vertex 0.0243871463 -0.0107607941 -0.04
      vertex 0.0197617695 -0.0282174392 0
    endloop
  endfacet
  facet normal 0.893903249 -0.448234746 0.00475327678
    outer loop
      vertex 0.0117500107 -0.0441950878 0
      vertex 0.016796289 -0.0367825313 -0.25
      vertex 0.0197617695 -0.0282174392 0
    endloop
  endfacet
  facet normal 0.944964212 -0.327173711 -7.47607445E-19
    outer loop
      vertex 0.0197617695 -0.0282174392 0
      vertex 0.016796289 -0.0367825313 -0.25
      vertex 0.0197617695 -0.0282174392 -0.5
    endloop
  endfacet
  facet normal 0.159343239 -0.987223243 5.92245621E-17
    outer loop
      vertex -0.00879742813 -0.0530524468 -0.25
      vertex -0.00879742813 -0.0530524468 -0.375
      vertex -0.00429610632 -0.0523259088 -0.25
    endloop
  endfacet
  facet normal 0.874861226 -0.484362427 0.00329771749
    outer loop
      vertex 0.0117500107 -0.0441950878 0
      vertex 0.0145929032 -0.0407623131 -0.25
      vertex 0.016796289 -0.0367825313 -0.25
    endloop
  endfacet
  facet normal 0.769011813 -0.639234566 -3.25211444E-05
    outer loop
      vertex 0.0117500107 -0.0441950878 0
      vertex 0.0116949128 -0.0442486529 -0.25
      vertex 0.0145929032 -0.0407623131 -0.25
    endloop
  endfacet
  facet normal 0.452631381 -0.891689233 0.003891628
    outer loop
      vertex -0.00423636284 -0.0523099489 0
      vertex 0.0041673522 -0.0491352127 -0.25
      vertex 0.0117500107 -0.0441950878 0
    endloop
  endfacet
  facet normal 0.481410236 -0.876491183 0.00271842603
    outer loop
      vertex 0.0041673522 -0.0491352127 -0.25
      vertex 0.00813067027 -0.0469583717 -0.25
      vertex 0.0117500107 -0.0441950878 0
    endloop
  endfacet
  facet normal 0.605209905 -0.796065933 3.71822045E-05
    outer loop
      vertex 0.0117500107 -0.0441950878 0
      vertex 0.00813067027 -0.0469583717 -0.25
      vertex 0.0116949128 -0.0442486529 -0.25
    endloop
  endfacet
  facet normal -0.0547001143 -0.998471363 0.00792682905
    outer loop
      vertex -0.0110258499 -0.0529303652 -0.125
      vertex -0.00879742813 -0.0530524468 -0.125
      vertex -0.00423636284 -0.0523099489 0
    endloop
  endfacet
  facet normal 0.160675359 -0.98700731 -5.92495491E-17
    outer loop
      vertex -0.00423636284 -0.0523099489 0
      vertex -0.00879742813 -0.0530524468 -0.125
      vertex -0.00879742813 -0.0530524468 -0.25
    endloop
  endfacet
  facet normal 0.159343238 -0.987223243 2.49448731E-05
    outer loop
      vertex -0.00423636284 -0.0523099489 0
      vertex -0.00879742813 -0.0530524468 -0.25
      vertex -0.00429610632 -0.0523259088 -0.25
    endloop
  endfacet
  facet normal 0.310776947 -0.950482871 -1.35893178E-05
    outer loop
      vertex -0.00423636284 -0.0523099489 0
      vertex -0.00429610632 -0.0523259088 -0.25
      vertex 5.80176141E-06 -0.0509193249 -0.25
    endloop
  endfacet
  facet normal 0.394029013 -0.919096655 0.00157367225
    outer loop
      vertex -0.00423636284 -0.0523099489 0
      vertex 5.80176141E-06 -0.0509193249 -0.25
      vertex 0.0041673522 -0.0491352127 -0.25
    endloop
  endfacet
  facet normal -0.48914689 -0.872201422 5.52051818E-17
    outer loop
      vertex -0.0131776357 -0.0523588274 -0.25
      vertex -0.0131776357 -0.0523588274 -0.125
      vertex -0.0170984884 -0.0501599397 -0.25
    endloop
  endfacet
  facet normal -0.512577552 -0.858640382 0.000973499063
    outer loop
      vertex -0.0170984884 -0.0501599397 -0.25
      vertex -0.0131776357 -0.0523588274 -0.125
      vertex -0.0208739046 -0.0476227095 0
    endloop
  endfacet
  facet normal -0.256664862 -0.966318823 0.0187371417
    outer loop
      vertex -0.00423636284 -0.0523099489 0
      vertex -0.0131776357 -0.0523588274 -0.125
      vertex -0.0110258499 -0.0529303652 -0.125
    endloop
  endfacet
  facet normal -0.271117745 -0.96234315 0.0197694045
    outer loop
      vertex -0.0131776357 -0.0523588274 -0.125
      vertex -0.00423636284 -0.0523099489 0
      vertex -0.0208739046 -0.0476227095 0
    endloop
  endfacet
  facet normal -0.557783859 -0.829986245 -0
    outer loop
      vertex -0.0208739046 -0.0476227095 0
      vertex -0.0208739046 -0.0476227095 -0.02
      vertex -0.0170984884 -0.0501599397 -0.25
    endloop
  endfacet
  facet normal -0.557783859 -0.829986245 -0
    outer loop
      vertex -0.0208739046 -0.0476227095 -0.02
      vertex -0.0208739046 -0.0476227095 -0.04
      vertex -0.0170984884 -0.0501599397 -0.25
    endloop
  endfacet
  facet normal -0.557783859 -0.829986245 -0
    outer loop
      vertex -0.0208739046 -0.0476227095 -0.04
      vertex -0.0208739046 -0.0476227095 -0.06
      vertex -0.0170984884 -0.0501599397 -0.25
    endloop
  endfacet
  facet normal -0.557783859 -0.829986245 -0
    outer loop
      vertex -0.0208739046 -0.0476227095 -0.06
      vertex -0.0208739046 -0.0476227095 -0.08
      vertex -0.0170984884 -0.0501599397 -0.25
    endloop
  endfacet
  facet normal -0.557783859 -0.829986245 9.67600754E-17
    outer loop
      vertex -0.0208739046 -0.0476227095 -0.08
      vertex -0.0208739046 -0.0476227095 -0.1
      vertex -0.0170984884 -0.0501599397 -0.25
    endloop
  endfacet
  facet normal -0.557783859 -0.829986245 -9.67600754E-17
    outer loop
      vertex -0.0208739046 -0.0476227095 -0.1
      vertex -0.0208739046 -0.0476227095 -0.12
      vertex -0.0170984884 -0.0501599397 -0.25
    endloop
  endfacet
  facet normal -0.557783859 -0.829986245 2.87959325E-16
    outer loop
      vertex -0.0208739046 -0.0476227095 -0.12
      vertex -0.0208739046 -0.0476227095 -0.14
      vertex -0.0170984884 -0.0501599397 -0.25
    endloop
  endfacet
  facet normal -0.557783859 -0.829986245 -5.7591865E-16
    outer loop
      vertex -0.0208739046 -0.0476227095 -0.14
      vertex -0.0208739046 -0.0476227095 -0.16
      vertex -0.0170984884 -0.0501599397 -0.25
    endloop
  endfacet
  facet normal -0.557783859 -0.829986245 -0
    outer loop
      vertex -0.0208739046 -0.0476227095 -0.16
      vertex -0.0208739046 -0.0476227095 -0.18
      vertex -0.0170984884 -0.0501599397 -0.25
    endloop
  endfacet
  facet normal -0.557783859 -0.829986245 2.87959325E-16
    outer loop
      vertex -0.0208739046 -0.0476227095 -0.18
      vertex -0.0208739046 -0.0476227095 -0.2
      vertex -0.0170984884 -0.0501599397 -0.25
    endloop
  endfacet
  facet normal -0.557783859 -0.829986245 -0
    outer loop
      vertex -0.0208739046 -0.0476227095 -0.2
      vertex -0.0208739046 -0.0476227095 -0.22
      vertex -0.0170984884 -0.0501599397 -0.25
    endloop
  endfacet
  facet normal -0.557783859 -0.829986245 -0
    outer loop
      vertex -0.0208739046 -0.0476227095 -0.22
      vertex -0.0208739046 -0.0476227095 -0.24
      vertex -0.0170984884 -0.0501599397 -0.25
    endloop
  endfacet
  facet normal -0.0547018329 -0.998502734 5.38940118E-17
    outer loop
      vertex -0.00879742813 -0.0530524468 -0.25
      vertex -0.0110258499 -0.0529303652 -0.375
      vertex -0.00879742813 -0.0530524468 -0.375
    endloop
  endfacet
  facet normal -0.0547018329 -0.998502734 -5.38940118E-17
    outer loop
      vertex -0.00879742813 -0.0530524468 -0.125
      vertex -0.0110258499 -0.0529303652 -0.25
      vertex -0.00879742813 -0.0530524468 -0.25
    endloop
  endfacet
  facet normal -0.256709929 -0.966488496 -7.12513185E-18
    outer loop
      vertex -0.0131776357 -0.0523588274 -0.375
      vertex -0.0110258499 -0.0529303652 -0.375
      vertex -0.0110258499 -0.0529303652 -0.25
    endloop
  endfacet
  facet normal -0.0547018329 -0.998502734 -1.51828086E-18
    outer loop
      vertex -0.00879742813 -0.0530524468 -0.25
      vertex -0.0110258499 -0.0529303652 -0.25
      vertex -0.0110258499 -0.0529303652 -0.375
    endloop
  endfacet
  facet normal -0.256709929 -0.966488496 -6.08720529E-17
    outer loop
      vertex -0.0131776357 -0.0523588274 -0.375
      vertex -0.0110258499 -0.0529303652 -0.25
      vertex -0.0131776357 -0.0523588274 -0.25
    endloop
  endfacet
  facet normal -0.256709929 -0.966488496 7.12513185E-18
    outer loop
      vertex -0.0131776357 -0.0523588274 -0.25
      vertex -0.0110258499 -0.0529303652 -0.25
      vertex -0.0110258499 -0.0529303652 -0.125
    endloop
  endfacet
  facet normal -0.0547018329 -0.998502734 1.51828086E-18
    outer loop
      vertex -0.00879742813 -0.0530524468 -0.125
      vertex -0.0110258499 -0.0529303652 -0.125
      vertex -0.0110258499 -0.0529303652 -0.25
    endloop
  endfacet
  facet normal -0.256709929 -0.966488496 5.70675496E-17
    outer loop
      vertex -0.0131776357 -0.0523588274 -0.25
      vertex -0.0110258499 -0.0529303652 -0.125
      vertex -0.0131776357 -0.0523588274 -0.125
    endloop
  endfacet
  facet normal 0.966643557 -0.256125424 0
    outer loop
      vertex 0.0243871463 -0.0107607941 -0.02
      vertex 0.0243871463 -0.0107607941 0
      vertex 0.0197617695 -0.0282174392 0
    endloop
  endfacet
  facet normal 0.966643557 -0.256125424 0
    outer loop
      vertex 0.0197617695 -0.0282174392 0
      vertex 0.0243871463 -0.0107607941 -0.04
      vertex 0.0243871463 -0.0107607941 -0.02
    endloop
  endfacet
  facet normal -0.557783859 -0.829986245 0
    outer loop
      vertex -0.0170984884 -0.0501599397 -0.25
      vertex -0.0208739046 -0.0476227095 -0.26
      vertex -0.0208739046 -0.0476227095 -0.28
    endloop
  endfacet
  facet normal -0.557783859 -0.829986245 -0
    outer loop
      vertex -0.0208739046 -0.0476227095 -0.24
      vertex -0.0208739046 -0.0476227095 -0.26
      vertex -0.0170984884 -0.0501599397 -0.25
    endloop
  endfacet
  facet normal 0.966643557 -0.256125424 0
    outer loop
      vertex 0.0243871463 -0.0107607941 -0.5
      vertex 0.0243871463 -0.0107607941 -0.48
      vertex 0.0197617695 -0.0282174392 -0.5
    endloop
  endfacet
  facet normal -0.999983116 0.0058109289 0
    outer loop
      vertex 0.00525648754 0.00782957532 -0.5
      vertex 0.00524497736 0.00584882735 -0.375
      vertex 0.00525648754 0.00782957532 -0.48
    endloop
  endfacet
  facet normal -0.999983116 0.0058109289 0
    outer loop
      vertex 0.00525648754 0.00782957532 -0.48
      vertex 0.00524497736 0.00584882735 -0.375
      vertex 0.00525648754 0.00782957532 -0.46
    endloop
  endfacet
  facet normal -0.999983116 0.0058109289 0
    outer loop
      vertex 0.00525648754 0.00782957532 -0.46
      vertex 0.00524497736 0.00584882735 -0.375
      vertex 0.00525648754 0.00782957532 -0.44
    endloop
  endfacet
  facet normal -0.999983116 0.0058109289 0
    outer loop
      vertex 0.00525648754 0.00782957532 -0.44
      vertex 0.00524497736 0.00584882735 -0.375
      vertex 0.00525648754 0.00782957532 -0.42
    endloop
  endfacet
  facet normal -0.999983116 0.0058109289 0
    outer loop
      vertex 0.00525648754 0.00782957532 -0.42
      vertex 0.00524497736 0.00584882735 -0.375
      vertex 0.00525648754 0.00782957532 -0.4
    endloop
  endfacet
  facet normal -0.99931621 -0.0369682801 -0.000677817242
    outer loop
      vertex 0.00524497736 0.00584882735 -0.375
      vertex 0.00525648754 0.00782957532 -0.5
      vertex 0.00531870626 0.0038558084 -0.375
    endloop
  endfacet
  facet normal -0.778858832 0.626870147 0.0203159636
    outer loop
      vertex 0.00531870626 0.0038558084 -0.375
      vertex 0.00525648754 0.00782957532 -0.5
      vertex -0.00775865274 -0.00834116913 -0.5
    endloop
  endfacet
  facet normal -0.99889545 -0.0469880898 0
    outer loop
      vertex -0.0208739046 -0.0476227095 -0.26
      vertex -0.0212554836 -0.0395109197 -0.25
      vertex -0.0208739046 -0.0476227095 -0.28
    endloop
  endfacet
  facet normal -0.99889545 -0.0469880898 0
    outer loop
      vertex -0.0208739046 -0.0476227095 -0.28
      vertex -0.0212554836 -0.0395109197 -0.25
      vertex -0.0208739046 -0.0476227095 -0.3
    endloop
  endfacet
  facet normal -0.99889545 -0.0469880898 0
    outer loop
      vertex -0.0208739046 -0.0476227095 -0.3
      vertex -0.0212554836 -0.0395109197 -0.25
      vertex -0.0208739046 -0.0476227095 -0.32
    endloop
  endfacet
  facet normal -0.99889545 -0.0469880898 0
    outer loop
      vertex -0.0208739046 -0.0476227095 -0.32
      vertex -0.0212554836 -0.0395109197 -0.25
      vertex -0.0208739046 -0.0476227095 -0.34
    endloop
  endfacet
  facet normal -0.99889545 -0.0469880898 0
    outer loop
      vertex -0.0208739046 -0.0476227095 -0.34
      vertex -0.0212554836 -0.0395109197 -0.25
      vertex -0.0208739046 -0.0476227095 -0.36
    endloop
  endfacet
  facet normal -0.99889545 -0.0469880898 0
    outer loop
      vertex -0.0208739046 -0.0476227095 -0.36
      vertex -0.0212554836 -0.0395109197 -0.25
      vertex -0.0208739046 -0.0476227095 -0.38
    endloop
  endfacet
  facet normal -0.99889545 -0.0469880898 0
    outer loop
      vertex -0.0208739046 -0.0476227095 -0.38
      vertex -0.0212554836 -0.0395109197 -0.25
      vertex -0.0208739046 -0.0476227095 -0.4
    endloop
  endfacet
  facet normal -0.99889545 -0.0469880898 0
    outer loop
      vertex -0.0208739046 -0.0476227095 -0.4
      vertex -0.0212554836 -0.0395109197 -0.25
      vertex -0.0208739046 -0.0476227095 -0.42
    endloop
  endfacet
  facet normal -0.99889545 -0.0469880898 0
    outer loop
      vertex -0.0208739046 -0.0476227095 -0.42
      vertex -0.0212554836 -0.0395109197 -0.25
      vertex -0.0208739046 -0.0476227095 -0.44
    endloop
  endfacet
  facet normal -0.99889545 -0.0469880898 0
    outer loop
      vertex -0.0208739046 -0.0476227095 -0.44
      vertex -0.0212554836 -0.0395109197 -0.25
      vertex -0.0208739046 -0.0476227095 -0.46
    endloop
  endfacet
  facet normal -0.99889545 -0.0469880898 0
    outer loop
      vertex -0.0208739046 -0.0476227095 -0.46
      vertex -0.0212554836 -0.0395109197 -0.25
      vertex -0.0208739046 -0.0476227095 -0.48
    endloop
  endfacet
  facet normal -0.99889545 -0.0469880898 -0
    outer loop
      vertex -0.0212554836 -0.0395109197 -0.25
      vertex -0.0208739046 -0.0476227095 -0.5
      vertex -0.0208739046 -0.0476227095 -0.48
    endloop
  endfacet
  facet normal -0.978354729 0.206925592 -0.00195537765
    outer loop
      vertex -0.0202384685 -0.0315584719 -0.25
      vertex -0.0186833644 -0.0265682772 -0.5
      vertex -0.0210705515 -0.035492603 -0.25
    endloop
  endfacet
  facet normal -0.994614454 0.103481441 -0.00580331491
    outer loop
      vertex -0.0186833644 -0.0265682772 -0.5
      vertex -0.0208739046 -0.0476227095 -0.5
      vertex -0.0210705515 -0.035492603 -0.25
    endloop
  endfacet
  facet normal -0.99893811 0.0459734094 -0.00301640167
    outer loop
      vertex -0.0208739046 -0.0476227095 -0.5
      vertex -0.0212554836 -0.0395109197 -0.25
      vertex -0.0210705515 -0.035492603 -0.25
    endloop
  endfacet
  facet normal -0.999983116 0.0058109289 0
    outer loop
      vertex 0.00525648754 0.00782957532 -0.12
      vertex 0.00524497736 0.00584882735 -0.125
      vertex 0.00525648754 0.00782957532 -0.1
    endloop
  endfacet
  facet normal -0.999983116 0.0058109289 0
    outer loop
      vertex 0.00525648754 0.00782957532 -0.1
      vertex 0.00524497736 0.00584882735 -0.125
      vertex 0.00525648754 0.00782957532 -0.08
    endloop
  endfacet
  facet normal -0.999983116 0.0058109289 0
    outer loop
      vertex 0.00525648754 0.00782957532 -0.08
      vertex 0.00524497736 0.00584882735 -0.125
      vertex 0.00525648754 0.00782957532 -0.06
    endloop
  endfacet
  facet normal -0.999983116 0.0058109289 0
    outer loop
      vertex 0.00525648754 0.00782957532 -0.06
      vertex 0.00524497736 0.00584882735 -0.125
      vertex 0.00525648754 0.00782957532 -0.04
    endloop
  endfacet
  facet normal -0.999983116 0.0058109289 0
    outer loop
      vertex 0.00525648754 0.00782957532 -0.04
      vertex 0.00524497736 0.00584882735 -0.125
      vertex 0.00525648754 0.00782957532 -0.02
    endloop
  endfacet
  facet normal -0.999983116 0.0058109289 0
    outer loop
      vertex 0.00524497736 0.00584882735 -0.125
      vertex 0.00525648754 0.00782957532 0
      vertex 0.00525648754 0.00782957532 -0.02
    endloop
  endfacet
  facet normal -0.778858832 0.626870147 -0.0203159636
    outer loop
      vertex -0.00775865274 -0.00834116913 0
      vertex 0.00525648754 0.00782957532 0
      vertex 0.00531870626 0.0038558084 -0.125
    endloop
  endfacet
  facet normal -0.99931621 -0.0369682801 0.000677817242
    outer loop
      vertex 0.00525648754 0.00782957532 0
      vertex 0.00524497736 0.00584882735 -0.125
      vertex 0.00531870626 0.0038558084 -0.125
    endloop
  endfacet
  facet normal -0.690536363 0.723295758 0.00166695845
    outer loop
      vertex 0.00531870626 0.0038558084 -0.375
      vertex -0.00775865274 -0.00834116913 -0.5
      vertex 0.00256054876 0.000934489107 -0.25
    endloop
  endfacet
  facet normal -0.581494716 0.813526694 -0.00618173773
    outer loop
      vertex -0.00775865274 -0.00834116913 -0.5
      vertex 0.00531870626 0.0038558084 -0.125
      vertex 0.00256054876 0.000934489107 -0.25
    endloop
  endfacet
  facet normal -0.682062456 0.731293926 3.04960341E-18
    outer loop
      vertex -0.00775865274 -0.00834116913 -0.5
      vertex -0.00775865274 -0.00834116913 0
      vertex 0.00531870626 0.0038558084 -0.125
    endloop
  endfacet
  facet normal -0.857732687 0.514095942 0
    outer loop
      vertex -0.0186833644 -0.0265682772 0
      vertex -0.00775865274 -0.00834116913 0
      vertex -0.0186833644 -0.0265682772 -0.5
    endloop
  endfacet
  facet normal -0.857732687 0.514095942 -1.79305976E-18
    outer loop
      vertex -0.00775865274 -0.00834116913 0
      vertex -0.00775865274 -0.00834116913 -0.5
      vertex -0.0186833644 -0.0265682772 -0.5
    endloop
  endfacet
  facet normal -0.727120777 0.68650956 2.3818085E-18
    outer loop
      vertex 0.00531870626 0.0038558084 -0.25
      vertex 0.00531870626 0.0038558084 -0.375
      vertex 0.00256054876 0.000934489107 -0.25
    endloop
  endfacet
  facet normal -0.998911503 0.0459721849 0.00789727171
    outer loop
      vertex -0.0212554836 -0.0395109197 -0.25
      vertex -0.0186833644 -0.0265682772 0
      vertex -0.0210705515 -0.035492603 -0.25
    endloop
  endfacet
  facet normal -0.99461938 0.103481953 0.0048757988
    outer loop
      vertex -0.0212554836 -0.0395109197 -0.25
      vertex -0.0208739046 -0.0476227095 0
      vertex -0.0186833644 -0.0265682772 0
    endloop
  endfacet
  facet normal -0.978354729 0.206925592 0.00195537765
    outer loop
      vertex -0.0210705515 -0.035492603 -0.25
      vertex -0.0186833644 -0.0265682772 0
      vertex -0.0202384685 -0.0315584719 -0.25
    endloop
  endfacet
  facet normal -0.954715623 0.297519881 0
    outer loop
      vertex -0.0186833644 -0.0265682772 0
      vertex -0.0186833644 -0.0265682772 -0.5
      vertex -0.0202384685 -0.0315584719 -0.25
    endloop
  endfacet
  facet normal -0.727120777 0.68650956 0
    outer loop
      vertex 0.00531870626 0.0038558084 -0.25
      vertex 0.00256054876 0.000934489107 -0.25
      vertex 0.00531870626 0.0038558084 -0.125
    endloop
  endfacet
  facet normal -0.99889545 -0.0469880898 0
    outer loop
      vertex -0.0208739046 -0.0476227095 0
      vertex -0.0212554836 -0.0395109197 -0.25
      vertex -0.0208739046 -0.0476227095 -0.02
    endloop
  endfacet
  facet normal -0.99889545 -0.0469880898 0
    outer loop
      vertex -0.0208739046 -0.0476227095 -0.02
      vertex -0.0212554836 -0.0395109197 -0.25
      vertex -0.0208739046 -0.0476227095 -0.04
    endloop
  endfacet
  facet normal -0.99889545 -0.0469880898 0
    outer loop
      vertex -0.0208739046 -0.0476227095 -0.04
      vertex -0.0212554836 -0.0395109197 -0.25
      vertex -0.0208739046 -0.0476227095 -0.06
    endloop
  endfacet
  facet normal -0.99889545 -0.0469880898 0
    outer loop
      vertex -0.0208739046 -0.0476227095 -0.06
      vertex -0.0212554836 -0.0395109197 -0.25
      vertex -0.0208739046 -0.0476227095 -0.08
    endloop
  endfacet
  facet normal -0.99889545 -0.0469880898 1.72102665E-16
    outer loop
      vertex -0.0208739046 -0.0476227095 -0.08
      vertex -0.0212554836 -0.0395109197 -0.25
      vertex -0.0208739046 -0.0476227095 -0.1
    endloop
  endfacet
  facet normal -0.99889545 -0.0469880898 -1.72102665E-16
    outer loop
      vertex -0.0208739046 -0.0476227095 -0.1
      vertex -0.0212554836 -0.0395109197 -0.25
      vertex -0.0208739046 -0.0476227095 -0.12
    endloop
  endfacet
  facet normal -0.99889545 -0.0469880898 1.56456968E-17
    outer loop
      vertex -0.0208739046 -0.0476227095 -0.12
      vertex -0.0212554836 -0.0395109197 -0.25
      vertex -0.0208739046 -0.0476227095 -0.14
    endloop
  endfacet
  facet normal -0.99889545 -0.0469880898 -3.12913936E-17
    outer loop
      vertex -0.0208739046 -0.0476227095 -0.14
      vertex -0.0212554836 -0.0395109197 -0.25
      vertex -0.0208739046 -0.0476227095 -0.16
    endloop
  endfacet
  facet normal -0.99889545 -0.0469880898 0
    outer loop
      vertex -0.0208739046 -0.0476227095 -0.16
      vertex -0.0212554836 -0.0395109197 -0.25
      vertex -0.0208739046 -0.0476227095 -0.18
    endloop
  endfacet
  facet normal -0.99889545 -0.0469880898 1.56456968E-17
    outer loop
      vertex -0.0208739046 -0.0476227095 -0.18
      vertex -0.0212554836 -0.0395109197 -0.25
      vertex -0.0208739046 -0.0476227095 -0.2
    endloop
  endfacet
  facet normal -0.99889545 -0.0469880898 0
    outer loop
      vertex -0.0208739046 -0.0476227095 -0.2
      vertex -0.0212554836 -0.0395109197 -0.25
      vertex -0.0208739046 -0.0476227095 -0.22
    endloop
  endfacet
  facet normal -0.99889545 -0.0469880898 0
    outer loop
      vertex -0.0208739046 -0.0476227095 -0.22
      vertex -0.0212554836 -0.0395109197 -0.25
      vertex -0.0208739046 -0.0476227095 -0.24
    endloop
  endfacet
  facet normal -0.999983116 0.0058109289 0
    outer loop
      vertex 0.00525648754 0.00782957532 -0.36
      vertex 0.00524497736 0.00584882735 -0.375
      vertex 0.00525648754 0.00782957532 -0.34
    endloop
  endfacet
  facet normal -0.999983116 0.0058109289 0
    outer loop
      vertex 0.00525648754 0.00782957532 -0.34
      vertex 0.00524497736 0.00584882735 -0.375
      vertex 0.00525648754 0.00782957532 -0.32
    endloop
  endfacet
  facet normal -0.999983116 0.0058109289 0
    outer loop
      vertex 0.00524497736 0.00584882735 -0.375
      vertex 0.00525648754 0.00782957532 -0.3
      vertex 0.00525648754 0.00782957532 -0.32
    endloop
  endfacet
  facet normal -0.999983116 0.0058109289 0
    outer loop
      vertex 0.00524497736 0.00584882735 -0.375
      vertex 0.00525648754 0.00782957532 -0.28
      vertex 0.00525648754 0.00782957532 -0.3
    endloop
  endfacet
  facet normal -0.999983116 0.0058109289 0
    outer loop
      vertex 0.00524497736 0.00584882735 -0.375
      vertex 0.00525648754 0.00782957532 -0.26
      vertex 0.00525648754 0.00782957532 -0.28
    endloop
  endfacet
  facet normal -0.999316439 -0.0369682886 -1.28259516E-19
    outer loop
      vertex 0.00524497736 0.00584882735 -0.25
      vertex 0.00531870626 0.0038558084 -0.375
      vertex 0.00531870626 0.0038558084 -0.25
    endloop
  endfacet
  facet normal -0.999316439 -0.0369682886 -0
    outer loop
      vertex 0.00524497736 0.00584882735 -0.25
      vertex 0.00524497736 0.00584882735 -0.375
      vertex 0.00531870626 0.0038558084 -0.375
    endloop
  endfacet
  facet normal -0.999983116 0.0058109289 0
    outer loop
      vertex 0.00525648754 0.00782957532 -0.24
      vertex 0.00524497736 0.00584882735 -0.25
      vertex 0.00525648754 0.00782957532 -0.22
    endloop
  endfacet
  facet normal -0.999983116 0.0058109289 0
    outer loop
      vertex 0.00525648754 0.00782957532 -0.22
      vertex 0.00524497736 0.00584882735 -0.25
      vertex 0.00525648754 0.00782957532 -0.2
    endloop
  endfacet
  facet normal -0.999983116 0.0058109289 0
    outer loop
      vertex 0.00525648754 0.00782957532 -0.2
      vertex 0.00524497736 0.00584882735 -0.25
      vertex 0.00525648754 0.00782957532 -0.18
    endloop
  endfacet
  facet normal -0.999983116 0.0058109289 0
    outer loop
      vertex 0.00524497736 0.00584882735 -0.25
      vertex 0.00525648754 0.00782957532 -0.16
      vertex 0.00525648754 0.00782957532 -0.18
    endloop
  endfacet
  facet normal -0.999983116 0.0058109289 0
    outer loop
      vertex 0.00524497736 0.00584882735 -0.25
      vertex 0.00525648754 0.00782957532 -0.14
      vertex 0.00525648754 0.00782957532 -0.16
    endloop
  endfacet
  facet normal -0.999316439 -0.0369682886 1.28259516E-19
    outer loop
      vertex 0.00524497736 0.00584882735 -0.125
      vertex 0.00531870626 0.0038558084 -0.25
      vertex 0.00531870626 0.0038558084 -0.125
    endloop
  endfacet
  facet normal -0.999316439 -0.0369682886 -6.93415075E-18
    outer loop
      vertex 0.00524497736 0.00584882735 -0.125
      vertex 0.00524497736 0.00584882735 -0.25
      vertex 0.00531870626 0.0038558084 -0.25
    endloop
  endfacet
  facet normal -0.999983116 0.0058109289 -6.93877675E-18
    outer loop
      vertex 0.00524497736 0.00584882735 -0.25
      vertex 0.00524497736 0.00584882735 -0.125
      vertex 0.00525648754 0.00782957532 -0.14
    endloop
  endfacet
  facet normal -0.999983116 0.0058109289 0
    outer loop
      vertex 0.00525648754 0.00782957532 -0.12
      vertex 0.00525648754 0.00782957532 -0.14
      vertex 0.00524497736 0.00584882735 -0.125
    endloop
  endfacet
  facet normal -0.99889545 -0.0469880898 -0
    outer loop
      vertex -0.0212554836 -0.0395109197 -0.25
      vertex -0.0208739046 -0.0476227095 -0.26
      vertex -0.0208739046 -0.0476227095 -0.24
    endloop
  endfacet
  facet normal -0.999983116 0.0058109289 0
    outer loop
      vertex 0.00524497736 0.00584882735 -0.375
      vertex 0.00525648754 0.00782957532 -0.38
      vertex 0.00525648754 0.00782957532 -0.4
    endloop
  endfacet
  facet normal -0.999983116 0.0058109289 0
    outer loop
      vertex 0.00525648754 0.00782957532 -0.36
      vertex 0.00525648754 0.00782957532 -0.38
      vertex 0.00524497736 0.00584882735 -0.375
    endloop
  endfacet
  facet normal -0.999983116 0.0058109289 0
    outer loop
      vertex 0.00524497736 0.00584882735 -0.375
      vertex 0.00524497736 0.00584882735 -0.25
      vertex 0.00525648754 0.00782957532 -0.26
    endloop
  endfacet
  facet normal -0.999983116 0.0058109289 0
    outer loop
      vertex 0.00525648754 0.00782957532 -0.24
      vertex 0.00525648754 0.00782957532 -0.26
      vertex 0.00524497736 0.00584882735 -0.25
    endloop
  endfacet
  facet normal 0.696907201 0.717161316 -0
    outer loop
      vertex 0.00525648754 0.00782957532 -0.32
      vertex 0.00525648754 0.00782957532 -0.3
      vertex 0.0243871463 -0.0107607941 -0.3
    endloop
  endfacet
  facet normal 0.696907201 0.717161316 -0
    outer loop
      vertex 0.00525648754 0.00782957532 -0.3
      vertex 0.0243871463 -0.0107607941 -0.28
      vertex 0.0243871463 -0.0107607941 -0.3
    endloop
  endfacet
  facet normal 0.696907201 0.717161316 -0
    outer loop
      vertex 0.00525648754 0.00782957532 -0.36
      vertex 0.0243871463 -0.0107607941 -0.34
      vertex 0.0243871463 -0.0107607941 -0.36
    endloop
  endfacet
  facet normal 0.696907201 0.717161316 -0
    outer loop
      vertex 0.00525648754 0.00782957532 -0.38
      vertex 0.00525648754 0.00782957532 -0.36
      vertex 0.0243871463 -0.0107607941 -0.36
    endloop
  endfacet
  facet normal 0.696907201 0.717161316 0
    outer loop
      vertex 0.0243871463 -0.0107607941 -0.32
      vertex 0.00525648754 0.00782957532 -0.34
      vertex 0.00525648754 0.00782957532 -0.32
    endloop
  endfacet
  facet normal 0.696907201 0.717161316 0
    outer loop
      vertex 0.0243871463 -0.0107607941 -0.34
      vertex 0.00525648754 0.00782957532 -0.34
      vertex 0.0243871463 -0.0107607941 -0.32
    endloop
  endfacet
  facet normal 0.696907201 0.717161316 -0
    outer loop
      vertex 0.00525648754 0.00782957532 -0.36
      vertex 0.00525648754 0.00782957532 -0.34
      vertex 0.0243871463 -0.0107607941 -0.34
    endloop
  endfacet
  facet normal 0.696907201 0.717161316 -1.24407657E-16
    outer loop
      vertex 0.00525648754 0.00782957532 -0.4
      vertex 0.0243871463 -0.0107607941 -0.38
      vertex 0.0243871463 -0.0107607941 -0.4
    endloop
  endfacet
  facet normal 0.696907201 0.717161316 -0
    outer loop
      vertex 0.00525648754 0.00782957532 -0.4
      vertex 0.00525648754 0.00782957532 -0.38
      vertex 0.0243871463 -0.0107607941 -0.38
    endloop
  endfacet
  facet normal 0.696907201 0.717161316 0
    outer loop
      vertex 0.0243871463 -0.0107607941 -0.38
      vertex 0.00525648754 0.00782957532 -0.38
      vertex 0.0243871463 -0.0107607941 -0.36
    endloop
  endfacet
  facet normal 0.696907201 0.717161316 0
    outer loop
      vertex 0.0243871463 -0.0107607941 -0.32
      vertex 0.00525648754 0.00782957532 -0.32
      vertex 0.0243871463 -0.0107607941 -0.3
    endloop
  endfacet
  facet normal 0.696907201 0.717161316 -0
    outer loop
      vertex 0.00525648754 0.00782957532 -0.42
      vertex 0.00525648754 0.00782957532 -0.4
      vertex 0.0243871463 -0.0107607941 -0.4
    endloop
  endfacet
  facet normal 0.696907201 0.717161316 0
    outer loop
      vertex 0.0243871463 -0.0107607941 -0.26
      vertex 0.00525648754 0.00782957532 -0.28
      vertex 0.00525648754 0.00782957532 -0.26
    endloop
  endfacet
  facet normal 0.696907201 0.717161316 0
    outer loop
      vertex 0.0243871463 -0.0107607941 -0.28
      vertex 0.00525648754 0.00782957532 -0.28
      vertex 0.0243871463 -0.0107607941 -0.26
    endloop
  endfacet
  facet normal 0.696907201 0.717161316 -0
    outer loop
      vertex 0.00525648754 0.00782957532 -0.3
      vertex 0.00525648754 0.00782957532 -0.28
      vertex 0.0243871463 -0.0107607941 -0.28
    endloop
  endfacet
  facet normal 0.696907201 0.717161316 0
    outer loop
      vertex 0.0243871463 -0.0107607941 -0.48
      vertex 0.0243871463 -0.0107607941 -0.5
      vertex 0.00525648754 0.00782957532 -0.5
    endloop
  endfacet
  facet normal 0.696907201 0.717161316 0
    outer loop
      vertex 0.00525648754 0.00782957532 -0.48
      vertex 0.0243871463 -0.0107607941 -0.48
      vertex 0.00525648754 0.00782957532 -0.5
    endloop
  endfacet
  facet normal 0.696907201 0.717161316 0
    outer loop
      vertex 0.0243871463 -0.0107607941 -0.46
      vertex 0.0243871463 -0.0107607941 -0.48
      vertex 0.00525648754 0.00782957532 -0.48
    endloop
  endfacet
  facet normal 0.696907201 0.717161316 -0
    outer loop
      vertex 0.00525648754 0.00782957532 -0.46
      vertex 0.0243871463 -0.0107607941 -0.44
      vertex 0.0243871463 -0.0107607941 -0.46
    endloop
  endfacet
  facet normal 0.696907201 0.717161316 -0
    outer loop
      vertex 0.00525648754 0.00782957532 -0.46
      vertex 0.00525648754 0.00782957532 -0.44
      vertex 0.0243871463 -0.0107607941 -0.44
    endloop
  endfacet
  facet normal 0.696907201 0.717161316 0
    outer loop
      vertex 0.0243871463 -0.0107607941 -0.44
      vertex 0.00525648754 0.00782957532 -0.44
      vertex 0.0243871463 -0.0107607941 -0.42
    endloop
  endfacet
  facet normal 0.696907201 0.717161316 0
    outer loop
      vertex 0.0243871463 -0.0107607941 -0.42
      vertex 0.00525648754 0.00782957532 -0.44
      vertex 0.00525648754 0.00782957532 -0.42
    endloop
  endfacet
  facet normal 0.696907201 0.717161316 -0
    outer loop
      vertex 0.00525648754 0.00782957532 -0.48
      vertex 0.00525648754 0.00782957532 -0.46
      vertex 0.0243871463 -0.0107607941 -0.46
    endloop
  endfacet
  facet normal 0.696907201 0.717161316 6.22038286E-17
    outer loop
      vertex 0.0243871463 -0.0107607941 -0.4
      vertex 0.0243871463 -0.0107607941 -0.42
      vertex 0.00525648754 0.00782957532 -0.42
    endloop
  endfacet
  facet normal 0.696907201 0.717161316 0
    outer loop
      vertex 0.0243871463 -0.0107607941 -0.24
      vertex 0.0243871463 -0.0107607941 -0.26
      vertex 0.00525648754 0.00782957532 -0.26
    endloop
  endfacet
  facet normal 0.696907201 0.717161316 0
    outer loop
      vertex 0.0243871463 -0.0107607941 -0.24
      vertex 0.00525648754 0.00782957532 -0.26
      vertex 0.00525648754 0.00782957532 -0.24
    endloop
  endfacet
  facet normal 0.696907201 0.717161316 0
    outer loop
      vertex 0.0243871463 -0.0107607941 -0.22
      vertex 0.0243871463 -0.0107607941 -0.24
      vertex 0.00525648754 0.00782957532 -0.24
    endloop
  endfacet
  facet normal 0.696907201 0.717161316 0
    outer loop
      vertex 0.0243871463 -0.0107607941 -0.22
      vertex 0.00525648754 0.00782957532 -0.24
      vertex 0.00525648754 0.00782957532 -0.22
    endloop
  endfacet
  facet normal 0.696907201 0.717161316 0
    outer loop
      vertex 0.0243871463 -0.0107607941 -0.2
      vertex 0.0243871463 -0.0107607941 -0.22
      vertex 0.00525648754 0.00782957532 -0.22
    endloop
  endfacet
  facet normal 0.696907201 0.717161316 0
    outer loop
      vertex 0.0243871463 -0.0107607941 -0.2
      vertex 0.00525648754 0.00782957532 -0.22
      vertex 0.00525648754 0.00782957532 -0.2
    endloop
  endfacet
  facet normal 0.696907201 0.717161316 0
    outer loop
      vertex 0.0243871463 -0.0107607941 -0.18
      vertex 0.0243871463 -0.0107607941 -0.2
      vertex 0.00525648754 0.00782957532 -0.2
    endloop
  endfacet
  facet normal 0.696907201 0.717161316 0
    outer loop
      vertex 0.0243871463 -0.0107607941 -0.18
      vertex 0.00525648754 0.00782957532 -0.2
      vertex 0.00525648754 0.00782957532 -0.18
    endloop
  endfacet
  facet normal 0.696907201 0.717161316 0
    outer loop
      vertex 0.0243871463 -0.0107607941 -0.16
      vertex 0.0243871463 -0.0107607941 -0.18
      vertex 0.00525648754 0.00782957532 -0.18
    endloop
  endfacet
  facet normal 0.696907201 0.717161316 0
    outer loop
      vertex 0.0243871463 -0.0107607941 -0.16
      vertex 0.00525648754 0.00782957532 -0.18
      vertex 0.00525648754 0.00782957532 -0.16
    endloop
  endfacet
  facet normal 0.696907201 0.717161316 0
    outer loop
      vertex 0.0243871463 -0.0107607941 -0.14
      vertex 0.0243871463 -0.0107607941 -0.16
      vertex 0.00525648754 0.00782957532 -0.16
    endloop
  endfacet
  facet normal 0.696907201 0.717161316 0
    outer loop
      vertex 0.0243871463 -0.0107607941 -0.14
      vertex 0.00525648754 0.00782957532 -0.16
      vertex 0.00525648754 0.00782957532 -0.14
    endloop
  endfacet
  facet normal 0.696907201 0.717161316 -6.22038286E-17
    outer loop
      vertex 0.0243871463 -0.0107607941 -0.12
      vertex 0.0243871463 -0.0107607941 -0.14
      vertex 0.00525648754 0.00782957532 -0.14
    endloop
  endfacet
  facet normal 0.696907201 0.717161316 0
    outer loop
      vertex 0.0243871463 -0.0107607941 -0.12
      vertex 0.00525648754 0.00782957532 -0.14
      vertex 0.00525648754 0.00782957532 -0.12
    endloop
  endfacet
  facet normal 0.696907201 0.717161316 6.22038286E-17
    outer loop
      vertex 0.0243871463 -0.0107607941 -0.1
      vertex 0.0243871463 -0.0107607941 -0.12
      vertex 0.00525648754 0.00782957532 -0.12
    endloop
  endfacet
  facet normal 0.696907201 0.717161316 0
    outer loop
      vertex 0.0243871463 -0.0107607941 -0.1
      vertex 0.00525648754 0.00782957532 -0.12
      vertex 0.00525648754 0.00782957532 -0.1
    endloop
  endfacet
  facet normal 0.696907201 0.717161316 0
    outer loop
      vertex 0.0243871463 -0.0107607941 -0.08
      vertex 0.0243871463 -0.0107607941 -0.1
      vertex 0.00525648754 0.00782957532 -0.1
    endloop
  endfacet
  facet normal 0.696907201 0.717161316 0
    outer loop
      vertex 0.0243871463 -0.0107607941 -0.08
      vertex 0.00525648754 0.00782957532 -0.1
      vertex 0.00525648754 0.00782957532 -0.08
    endloop
  endfacet
  facet normal 0.696907201 0.717161316 0
    outer loop
      vertex 0.0243871463 -0.0107607941 -0.06
      vertex 0.0243871463 -0.0107607941 -0.08
      vertex 0.00525648754 0.00782957532 -0.08
    endloop
  endfacet
  facet normal 0.696907201 0.717161316 0
    outer loop
      vertex 0.0243871463 -0.0107607941 -0.06
      vertex 0.00525648754 0.00782957532 -0.08
      vertex 0.00525648754 0.00782957532 -0.06
    endloop
  endfacet
  facet normal 0.696907201 0.717161316 0
    outer loop
      vertex 0.0243871463 -0.0107607941 -0.04
      vertex 0.0243871463 -0.0107607941 -0.06
      vertex 0.00525648754 0.00782957532 -0.06
    endloop
  endfacet
  facet normal 0.696907201 0.717161316 0
    outer loop
      vertex 0.0243871463 -0.0107607941 -0.04
      vertex 0.00525648754 0.00782957532 -0.06
      vertex 0.00525648754 0.00782957532 -0.04
    endloop
  endfacet
  facet normal 0.696907201 0.717161316 0
    outer loop
      vertex 0.0243871463 -0.0107607941 -0.02
      vertex 0.0243871463 -0.0107607941 -0.04
      vertex 0.00525648754 0.00782957532 -0.04
    endloop
  endfacet
  facet normal 0.696907201 0.717161316 0
    outer loop
      vertex 0.0243871463 -0.0107607941 -0.02
      vertex 0.00525648754 0.00782957532 -0.04
      vertex 0.00525648754 0.00782957532 -0.02
    endloop
  endfacet
  facet normal 0.696907201 0.717161316 0
    outer loop
      vertex 0.0243871463 -0.0107607941 0
      vertex 0.0243871463 -0.0107607941 -0.02
      vertex 0.00525648754 0.00782957532 -0.02
    endloop
  endfacet
  facet normal 0.696907201 0.717161316 0
    outer loop
      vertex 0.0243871463 -0.0107607941 0
      vertex 0.00525648754 0.00782957532 -0.02
      vertex 0.00525648754 0.00782957532 0
    endloop
  endfacet
endsolid Default PSHELL Property
